<svg width="215" height="211" viewBox="0 0 215 211" fill="none" xmlns="http://www.w3.org/2000/svg">
<path d="M193.9 19.68H41.59C31.8642 19.68 23.98 27.5643 23.98 37.29V189.6C23.98 199.326 31.8642 207.21 41.59 207.21H193.9C203.626 207.21 211.51 199.326 211.51 189.6V37.29C211.51 27.5643 203.626 19.68 193.9 19.68Z" fill="#EFAF00" stroke="black" stroke-width="6" stroke-linecap="round" stroke-linejoin="round"/>
<path d="M172.92 3H20.61C10.8843 3 3 10.8843 3 20.61V172.92C3 182.646 10.8843 190.53 20.61 190.53H172.92C182.646 190.53 190.53 182.646 190.53 172.92V20.61C190.53 10.8843 182.646 3 172.92 3Z" fill="#F4F1ED" stroke="#070707" stroke-width="6" stroke-linecap="round" stroke-linejoin="round"/>
<path d="M75.55 125.46H138.92L151.62 84.41H62.91L75.55 125.46Z" fill="#C5DCDD"/>
<path d="M31.09 65.68H44.49C46.4875 65.6791 48.4327 66.3187 50.0399 67.5048C51.6472 68.6909 52.8318 70.361 53.42 72.27L69.42 123.91H133.95L137.13 136.83C137.37 137.798 137.386 138.808 137.178 139.784C136.969 140.759 136.541 141.674 135.926 142.46C135.311 143.245 134.526 143.88 133.629 144.317C132.732 144.754 131.747 144.98 130.75 144.98H72.08" stroke="#070707" stroke-width="6" stroke-linecap="round" stroke-linejoin="round"/>
<path d="M69.34 123.91H133.72L147.05 80.79H56.06L69.34 123.91Z" stroke="#070707" stroke-width="6" stroke-linecap="round" stroke-linejoin="round"/>
<path d="M110.05 123.91L123.38 80.79" stroke="#070707" stroke-width="6" stroke-linecap="round" stroke-linejoin="round"/>
<path d="M95.67 123.91L82.34 80.79" stroke="#070707" stroke-width="6" stroke-linecap="round" stroke-linejoin="round"/>
<path d="M62.29 100.94H140.82" stroke="#070707" stroke-width="6" stroke-linecap="round" stroke-linejoin="round"/>
<path d="M79.67 162.98C83.2654 162.98 86.18 160.065 86.18 156.47C86.18 152.875 83.2654 149.96 79.67 149.96C76.0747 149.96 73.16 152.875 73.16 156.47C73.16 160.065 76.0747 162.98 79.67 162.98Z" stroke="#070707" stroke-width="6" stroke-linecap="round" stroke-linejoin="round"/>
<path d="M127.01 162.98C130.605 162.98 133.52 160.065 133.52 156.47C133.52 152.875 130.605 149.96 127.01 149.96C123.415 149.96 120.5 152.875 120.5 156.47C120.5 160.065 123.415 162.98 127.01 162.98Z" stroke="#070707" stroke-width="6" stroke-linecap="round" stroke-linejoin="round"/>
<path d="M101.43 31.48V64.81" stroke="#070707" stroke-width="6" stroke-linecap="round" stroke-linejoin="round"/>
<path d="M85.16 50.43L101.27 66.54L116.54 51.28" stroke="#070707" stroke-width="6" stroke-linecap="round" stroke-linejoin="round"/>
</svg>
