<svg width="215" height="211" viewBox="0 0 215 211" fill="none" xmlns="http://www.w3.org/2000/svg">
<path d="M193.9 19.69H41.59C31.8642 19.69 23.98 27.5743 23.98 37.3V189.61C23.98 199.336 31.8642 207.22 41.59 207.22H193.9C203.626 207.22 211.51 199.336 211.51 189.61V37.3C211.51 27.5743 203.626 19.69 193.9 19.69Z" fill="#EFAF00" stroke="black" stroke-width="6" stroke-linecap="round" stroke-linejoin="round"/>
<path d="M172.92 3H20.61C10.8843 3 3 10.8843 3 20.61V172.92C3 182.646 10.8843 190.53 20.61 190.53H172.92C182.646 190.53 190.53 182.646 190.53 172.92V20.61C190.53 10.8843 182.646 3 172.92 3Z" fill="#F4F1ED" stroke="#070707" stroke-width="6" stroke-linecap="round" stroke-linejoin="round"/>
<path d="M111.94 119.97L91.35 36.35" stroke="#070707" stroke-width="6" stroke-linecap="round" stroke-linejoin="round"/>
<path d="M119.62 109.35L69.62 36.35" stroke="#070707" stroke-width="6" stroke-linecap="round" stroke-linejoin="round"/>
<path d="M148.12 89.26L133.74 153.91H112.21L126.59 89.26H148.12Z" fill="#C5DCDD" stroke="black" stroke-width="6" stroke-linecap="round" stroke-linejoin="round"/>
<path d="M126.59 89.26L112.21 153.91H56.94L42.57 89.26H126.59Z" fill="#F4F1ED" stroke="#070707" stroke-width="6" stroke-linecap="round" stroke-linejoin="round"/>
<path d="M113.96 76.47H29.94L42.57 89.26H126.59L113.96 76.47Z" fill="#F4F1ED" stroke="#070707" stroke-width="6" stroke-linecap="round" stroke-linejoin="round"/>
<path d="M139.1 76.47H161.48L148.86 89.26H126.47L139.1 76.47Z" fill="#C5DCDD" stroke="black" stroke-width="6" stroke-linecap="round" stroke-linejoin="round"/>
</svg>
