<svg width="215" height="211" viewBox="0 0 215 211" fill="none" xmlns="http://www.w3.org/2000/svg">
<path d="M193.9 19.69H41.59C31.8642 19.69 23.98 27.5743 23.98 37.3V189.61C23.98 199.336 31.8642 207.22 41.59 207.22H193.9C203.626 207.22 211.51 199.336 211.51 189.61V37.3C211.51 27.5743 203.626 19.69 193.9 19.69Z" fill="#EFAF00" stroke="black" stroke-width="6" stroke-linecap="round" stroke-linejoin="round"/>
<path d="M172.92 3H20.61C10.8843 3 3 10.8843 3 20.61V172.92C3 182.646 10.8843 190.53 20.61 190.53H172.92C182.646 190.53 190.53 182.646 190.53 172.92V20.61C190.53 10.8843 182.646 3 172.92 3Z" fill="#F4F1ED" stroke="#070707" stroke-width="6" stroke-linecap="round" stroke-linejoin="round"/>
<path d="M82.4312 55.7323L95.2716 52.0067C99.915 50.6594 104.903 51.2119 109.139 53.5426C113.375 55.8733 116.512 59.7913 117.859 64.4347L139.38 138.606L91.5334 152.488L70.0128 78.3173C68.666 73.6756 69.2176 68.689 71.5463 64.4539C73.875 60.2187 77.7902 57.0816 82.4312 55.7323V55.7323Z" fill="#C5DCDD" stroke="black" stroke-width="6" stroke-linecap="round" stroke-linejoin="round"/>
<path d="M77.45 53.77H91.19C96.1548 53.77 100.916 55.7423 104.427 59.253C107.938 62.7637 109.91 67.5252 109.91 72.49V153.91H58.73V72.49C58.73 70.0317 59.2142 67.5974 60.155 65.3262C61.0957 63.055 62.4746 60.9913 64.2129 59.253C65.9512 57.5147 68.0149 56.1357 70.2861 55.195C72.5574 54.2542 74.9916 53.77 77.45 53.77V53.77Z" fill="#F4F1ED" stroke="#070707" stroke-width="6" stroke-linecap="round" stroke-linejoin="round"/>
<path d="M78.34 53.77H92.08C97.0448 53.77 101.806 55.7423 105.317 59.253C108.828 62.7637 110.8 67.5251 110.8 72.49V153.91H59.6V72.49C59.6 70.03 60.0849 67.5941 61.0269 65.3215C61.9689 63.049 63.3496 60.9845 65.09 59.2459C66.8304 57.5073 68.8965 56.1288 71.17 55.1892C73.4435 54.2496 75.88 53.7674 78.34 53.77V53.77Z" fill="#F4F1ED" stroke="#070707" stroke-width="6" stroke-linecap="round" stroke-linejoin="round"/>
<path d="M85.19 80.12C88.2386 80.12 90.71 77.6486 90.71 74.6C90.71 71.5514 88.2386 69.08 85.19 69.08C82.1414 69.08 79.67 71.5514 79.67 74.6C79.67 77.6486 82.1414 80.12 85.19 80.12Z" fill="#F4F1ED" stroke="#070707" stroke-width="6" stroke-linecap="round" stroke-linejoin="round"/>
<path d="M85.19 72.51V30.74" stroke="#070707" stroke-width="6" stroke-linecap="round" stroke-linejoin="round"/>
<path d="M86.57 126.97C87.8362 126.779 89.0036 126.174 89.89 125.25C90.6423 124.433 91.0568 123.361 91.05 122.25C91.0825 121.72 90.9981 121.189 90.8028 120.694C90.6076 120.2 90.3062 119.755 89.92 119.39C88.93 118.6 87.7905 118.019 86.57 117.68L83.87 116.9C82.2294 116.471 80.6351 115.882 79.11 115.14C77.8494 114.513 76.7766 113.564 76 112.39C75.055 110.728 74.6565 108.812 74.8611 106.911C75.0657 105.01 75.863 103.222 77.14 101.8C78.9867 100.119 81.3739 99.1542 83.87 99.08H86.57C87.9099 99.1953 89.2247 99.5122 90.47 100.02C91.5694 100.495 92.5421 101.221 93.31 102.14C93.9089 102.806 94.4044 103.557 94.78 104.37C95.1046 105.028 95.2853 105.747 95.31 106.48C95.3129 106.824 95.2452 107.164 95.111 107.481C94.9769 107.797 94.7791 108.083 94.53 108.32C94.2865 108.571 93.9938 108.769 93.6703 108.901C93.3469 109.034 92.9995 109.098 92.65 109.09C92.0022 109.112 91.3691 108.895 90.8712 108.48C90.3733 108.065 90.0454 107.481 89.95 106.84C89.7515 106.004 89.3336 105.236 88.7394 104.616C88.1453 103.995 87.3964 103.545 86.57 103.31L83.87 103.23C82.8514 103.494 81.9004 103.971 81.08 104.63C80.4572 105.346 80.1092 106.26 80.0982 107.209C80.0872 108.158 80.4139 109.08 81.02 109.81C81.8628 110.506 82.8299 111.035 83.87 111.37L86.57 112.16C88.33 112.64 89.73 113.08 90.77 113.47C91.8026 113.862 92.7499 114.449 93.56 115.2C94.4251 115.97 95.1082 116.923 95.56 117.99C96.0484 119.113 96.2938 120.326 96.28 121.55C96.2885 123.135 95.8964 124.697 95.14 126.09C94.3569 127.523 93.1989 128.715 91.79 129.54C90.1896 130.478 88.3912 131.026 86.54 131.14H83.84C82.3337 131.002 80.8623 130.606 79.49 129.97C78.3253 129.433 77.2733 128.68 76.39 127.75C75.6186 126.946 74.9956 126.011 74.55 124.99C74.1645 124.099 73.9606 123.141 73.95 122.17C73.9543 121.826 74.0272 121.485 74.1646 121.169C74.302 120.853 74.501 120.568 74.75 120.33C75.0085 120.062 75.3198 119.851 75.664 119.71C76.0083 119.569 76.3781 119.501 76.75 119.51C77.3201 119.491 77.8822 119.648 78.36 119.96C78.8 120.26 79.1245 120.701 79.28 121.21C79.5611 122.119 79.895 123.01 80.28 123.88C80.5833 124.527 81.0195 125.103 81.56 125.57C82.2266 126.126 83.009 126.526 83.85 126.74L86.57 126.97Z" fill="#070707"/>
<path d="M85.14 134.93C84.682 134.927 84.2435 134.744 83.9196 134.42C83.5957 134.097 83.4126 133.658 83.41 133.2V96.37C83.4432 95.9326 83.6404 95.5239 83.9622 95.2257C84.2839 94.9275 84.7063 94.7618 85.145 94.7618C85.5836 94.7618 86.0061 94.9275 86.3278 95.2257C86.6495 95.5239 86.8468 95.9326 86.88 96.37V133.2C86.8773 133.66 86.6929 134.1 86.3668 134.424C86.0408 134.748 85.5997 134.93 85.14 134.93Z" fill="#070707"/>
</svg>
