<svg width="689" height="638" viewBox="0 0 689 638" fill="none" xmlns="http://www.w3.org/2000/svg">
<path d="M429.253 385.317C425.548 440.201 416.802 481.551 417.66 490.629C417.66 490.629 434.911 558.65 427.191 633.855C427.191 633.855 396.703 637.011 383.736 633.855C383.736 633.855 382.488 625.422 380.04 612.778C375.342 588.492 371.01 548.66 365.902 523.097C364.206 514.626 357.426 481.685 350.853 446.157C341.25 470.477 332.253 486.205 324.413 507.547C324.413 507.547 325.758 590.034 294.663 635.96L245.57 632.881C245.57 632.881 259.491 567.419 265.968 510.289L307.505 265.582H381.669C381.669 265.582 433.61 309.075 429.253 385.317Z" fill="#F7F3EF" stroke="#070707" stroke-width="4" stroke-linecap="round" stroke-linejoin="round"/>
<path d="M350.473 448.817L340.691 376.151" stroke="#070707" stroke-width="4" stroke-linecap="round" stroke-linejoin="round"/>
<path d="M371.906 128.857C382.204 131.391 408.167 138.046 415.756 149.346C425.644 164.043 441.917 234.82 441.917 234.82L413.54 226.454C413.54 226.454 395.344 193.49 394.116 193.49C392.887 193.49 381.659 265.587 381.659 265.587H307.505L301.346 229.148C301.346 229.148 285.594 216.349 286.582 208.476C287.57 200.602 287.864 198.308 287.864 198.308C287.864 198.308 279.436 201.407 256.306 224.291L229.244 212.427C229.244 212.427 271.08 153.278 283.136 146.185C295.193 139.092 309.466 137.622 309.466 137.622L371.906 128.857Z" fill="#F7F3EF" stroke="#070707" stroke-width="4" stroke-linecap="round" stroke-linejoin="round"/>
<path d="M336.2 79.9326C336.2 79.9326 345.466 117.277 376.195 130.273C376.195 130.273 353.749 145.818 306.531 140.05C306.531 140.05 323.281 120.993 320.115 99.8338L336.2 79.9326Z" fill="#FCBE9F" stroke="#070707" stroke-width="4" stroke-linecap="round" stroke-linejoin="round"/>
<path d="M315.696 133.198C314.413 133.242 313.137 132.985 311.971 132.447C316.549 124.958 322.091 112.791 320.163 99.8338L335.684 80.6024C336.315 81.4697 336.648 81.9998 336.648 81.9998C338.797 88.7363 340.088 132.138 315.696 133.198Z" fill="#1C0E0C"/>
<path d="M336.2 79.9326C338.383 86.6787 335.376 118.805 317.552 120.993C304.151 122.636 289.319 95.7234 287.396 89.6711C285.474 83.6189 287.825 69.1676 302.161 64.8308C321.378 59.0002 336.2 79.9326 336.2 79.9326Z" fill="#FCBE9F" stroke="#070707" stroke-width="4" stroke-linecap="round" stroke-linejoin="round"/>
<path d="M294.75 72.8202C294.75 72.8202 307.986 84.0477 336.19 79.9326C336.19 79.9326 344.425 117.889 376.185 130.273C376.185 130.273 396.694 107.033 382.903 91.0493C374.147 80.93 354.472 89.8157 354.472 89.8157C354.472 89.8157 371.974 45.744 328.528 45.5368C285.083 45.3296 275.754 91.4589 288.803 93.1695C288.856 93.1695 282.447 79.9326 294.75 72.8202Z" fill="#1C0E0C"/>
<path d="M384.999 87.1172C369.969 75.6777 353.677 90.0084 353.677 90.0084" stroke="#070707" stroke-width="4" stroke-linecap="round" stroke-linejoin="round"/>
<path d="M294.335 72.4106C294.335 72.4106 301.732 89.0206 329.945 84.9055" stroke="#070707" stroke-width="4" stroke-linecap="round" stroke-linejoin="round"/>
<path d="M283.483 83.7827C283.483 83.7827 279.171 67.5775 283.7 59.9591C288.23 52.3408 308.815 37.1041 323.435 36.0777C338.055 35.0513 369.969 52.7552 369.969 52.7552C369.969 52.7552 343.25 54.0996 338.387 87.0883C338.387 87.0883 326.191 59.5833 304.449 64.2574C282.708 68.9315 283.483 83.7827 283.483 83.7827Z" fill="#EFAF00" stroke="black" stroke-width="4" stroke-linecap="round" stroke-linejoin="round"/>
<path d="M363.604 124.101C363.604 124.101 354.246 150.054 353.282 169.059C353.282 169.059 320.481 173.704 312.901 169.541C308.184 166.944 314.198 131.035 314.198 131.035L302.869 138.783C302.869 138.783 289.145 188.117 287.864 198.308C286.582 208.5 282.645 214.649 301.356 229.148L307.505 265.577L287.449 368.119C287.449 368.119 364.351 373.607 391.663 366.471C418.975 359.334 381.669 265.577 381.669 265.577L387.21 230.921C387.21 230.921 355.985 201.845 371.916 128.857L363.604 124.101Z" fill="#EFAF00" stroke="black" stroke-width="4" stroke-linecap="round" stroke-linejoin="round"/>
<path d="M413.723 242.958C411.569 242.076 405.097 222.238 420.681 217.954C441.122 212.364 445.198 222.932 444.654 231.673C443.613 248.519 432.911 250.832 413.723 242.958Z" fill="#F7F3EF" stroke="#070707" stroke-width="4" stroke-linecap="round" stroke-linejoin="round"/>
<path d="M336.952 262.035L336.73 261.92C336.533 261.817 336.358 261.676 336.216 261.505C336.074 261.335 335.966 261.138 335.9 260.926C335.834 260.713 335.81 260.49 335.83 260.269C335.85 260.048 335.913 259.833 336.017 259.636L348.897 231.731C349.106 231.333 349.465 231.034 349.894 230.901C350.323 230.767 350.788 230.809 351.186 231.018L354.106 232.545C354.303 232.648 354.479 232.789 354.622 232.96C354.765 233.131 354.872 233.328 354.939 233.541C355.006 233.753 355.03 233.977 355.01 234.199C354.99 234.421 354.927 234.637 354.824 234.834L339.236 261.337C339.025 261.732 338.666 262.027 338.238 262.158C337.81 262.289 337.347 262.245 336.952 262.035Z" fill="#F7F3EF" stroke="#070707" stroke-width="4" stroke-linecap="round" stroke-linejoin="round"/>
<path d="M338.032 262.015L336.102 261.005L312.625 305.856L314.554 306.867L338.032 262.015Z" fill="#F7F3EF" stroke="#070707" stroke-width="4" stroke-linecap="round" stroke-linejoin="round"/>
<path d="M316.602 318.409C313.566 324.221 306.199 329.781 302.392 327.791C298.585 325.801 298.961 316.578 302.002 310.767C305.042 304.955 309.981 304.204 313.716 306.16C317.45 308.117 319.643 312.603 316.602 318.409Z" fill="#F7F3EF" stroke="#070707" stroke-width="4" stroke-linecap="round" stroke-linejoin="round"/>
<path d="M430.381 247.353C412.243 258.176 375.082 274.111 354.048 278.78C351.48 284.519 342.922 293.41 340.792 293.853C338.339 294.364 337.419 293.159 335.01 292.268C330.88 290.75 332.86 287.772 330.133 287.237C327.406 286.702 326.794 282.592 326.794 282.592C326.794 282.592 324.225 282.929 322.683 287.155C320.756 292.456 317.947 291.217 317.947 291.217C317.947 291.217 319.392 282.655 320.607 281.04C322.604 278.425 324.864 276.023 327.353 273.87C328.885 272.579 342.088 270.097 348.642 270.165C365.054 256.07 393.017 235.417 411.472 227.76C424.724 222.301 446.683 237.61 430.381 247.353Z" fill="#FCBE9F" stroke="#070707" stroke-width="4" stroke-linecap="round" stroke-linejoin="round"/>
<path d="M222.474 238.727C220.32 237.85 213.926 216.422 229.432 211.873C244.939 207.324 256.128 217.964 256.745 226.7C257.034 230.796 241.662 246.577 222.474 238.727Z" fill="#F7F3EF" stroke="#070707" stroke-width="4" stroke-linecap="round" stroke-linejoin="round"/>
<path d="M238.038 254.716C235.576 253.752 210.668 238.395 225.866 226.425C245.734 210.784 252.817 238.915 252.817 238.915L238.038 254.716Z" fill="#FCBE9F" stroke="#070707" stroke-width="4" stroke-linecap="round" stroke-linejoin="round"/>
<path d="M262.209 243.768L261.978 243.864C261.773 243.951 261.554 243.997 261.332 244C261.109 244.002 260.889 243.96 260.683 243.877C260.477 243.793 260.29 243.67 260.131 243.514C259.973 243.358 259.847 243.173 259.761 242.968L246.365 215.304C246.278 215.1 246.232 214.88 246.23 214.658C246.228 214.436 246.269 214.215 246.353 214.009C246.436 213.803 246.559 213.616 246.715 213.458C246.871 213.299 247.057 213.174 247.261 213.087L250.297 211.796C250.711 211.621 251.177 211.617 251.593 211.785C252.01 211.953 252.342 212.279 252.519 212.692L263.12 241.546C263.207 241.752 263.252 241.973 263.253 242.196C263.254 242.419 263.211 242.64 263.127 242.847C263.042 243.053 262.917 243.241 262.76 243.399C262.602 243.557 262.415 243.682 262.209 243.768V243.768Z" fill="#F7F3EF" stroke="#070707" stroke-width="4" stroke-linecap="round" stroke-linejoin="round"/>
<path d="M262.861 242.922L260.855 243.772L280.628 290.376L282.633 289.526L262.861 242.922Z" fill="#F7F3EF" stroke="#070707" stroke-width="4" stroke-linecap="round" stroke-linejoin="round"/>
<path d="M292.861 295.26C295.419 301.298 295.048 310.521 291.097 312.198C287.146 313.875 280.25 307.736 277.691 301.698C275.133 295.66 277.691 291.367 281.546 289.719C285.512 288.042 290.297 289.227 292.861 295.26Z" fill="#F7F3EF" stroke="#070707" stroke-width="4" stroke-linecap="round" stroke-linejoin="round"/>
<path d="M251.044 239.017C252.36 238.164 255.646 236.665 260.243 240.809C264.84 244.953 277.359 258.918 275.595 260.681C272.222 264.054 265.529 252.721 264.194 253.998C263.814 254.364 263.977 255.246 263.847 256.176C263.717 257.106 263.293 258.074 261.727 258.619C259.636 259.356 261.727 262.035 258.807 263.645C255.887 265.254 257.304 266.054 255.198 268.555C252.788 271.384 239.33 263.014 237.2 258.513C235.07 254.012 245.44 242.664 251.044 239.017Z" fill="#FCBE9F" stroke="#070707" stroke-width="4" stroke-linecap="round" stroke-linejoin="round"/>
<path d="M294.619 96.9281C294.619 96.9281 299.106 99.3856 300.922 94.4706" stroke="#070707" stroke-width="4" stroke-linecap="round" stroke-linejoin="round"/>
<path d="M309.856 91.1842C309.856 91.1842 314.853 94.1911 318.53 88.3701" stroke="#070707" stroke-width="4" stroke-linecap="round" stroke-linejoin="round"/>
<path d="M304.541 93.7622V101.612L308.112 104.069" stroke="#070707" stroke-width="4" stroke-linecap="round" stroke-linejoin="round"/>
<path d="M311.07 108.994C311.07 108.994 316.034 107.433 316.732 103.761" stroke="#070707" stroke-width="4" stroke-linecap="round" stroke-linejoin="round"/>
<path d="M311.249 178.104H352.559" stroke="#070707" stroke-width="4" stroke-linecap="round" stroke-linejoin="round"/>
<path d="M313.036 247.285H333.545" stroke="#070707" stroke-width="4" stroke-linecap="round" stroke-linejoin="round"/>
<path d="M355.875 93.8175C360.409 88.8213 362.552 83.3809 360.662 81.6659C358.772 79.9508 353.564 82.6107 349.031 87.6069C344.497 92.603 342.355 98.0435 344.245 99.7585C346.135 101.474 351.342 98.8136 355.875 93.8175Z" fill="#E57B07" stroke="#070707" stroke-width="4" stroke-linecap="round" stroke-linejoin="round"/>
<path d="M642.008 498.3L617.905 387.606L637.792 385.196L656.329 498.3" fill="#F7F3EF"/>
<path d="M642.008 498.3L617.905 387.606L637.792 385.196L656.329 498.3" stroke="#070707" stroke-width="4" stroke-linecap="round" stroke-linejoin="round"/>
<path d="M617.905 387.606L637.792 385.196L639.743 397.122L619.317 394.077L617.905 387.606Z" fill="#1C0E0C"/>
<path d="M36.5451 498.3L60.6482 387.606L40.7615 385.196L22.2192 498.3" fill="#F7F3EF"/>
<path d="M36.5451 498.3L60.6482 387.606L40.7615 385.196L22.2192 498.3" stroke="#070707" stroke-width="4" stroke-linecap="round" stroke-linejoin="round"/>
<path d="M40.7615 385.196L60.6482 387.606L57.7907 400.732L39.9375 390.237L40.7615 385.196Z" fill="#070707"/>
<path d="M339.067 385.321C525.216 385.321 676.119 374.207 676.119 360.496C676.119 346.785 525.216 335.67 339.067 335.67C152.918 335.67 2.01447 346.785 2.01447 360.496C2.01447 374.207 152.918 385.321 339.067 385.321Z" fill="#F7F3EF" stroke="#070707" stroke-width="4" stroke-linecap="round" stroke-linejoin="round"/>
<path d="M676.134 360.496V373.655C676.134 387.369 525.227 398.481 339.081 398.481C176.273 398.481 40.429 389.981 8.91962 378.677C4.40933 377.082 2 375.381 2 373.655V360.496C2 362.216 4.37561 363.893 8.89554 365.512C10.3636 366.035 12.0582 366.558 13.9792 367.078C53.1455 377.592 183.847 385.317 339.057 385.317C494.267 385.317 624.964 377.607 664.13 367.078C671.946 364.982 676.134 362.77 676.134 360.496Z" fill="#F7F3EF" stroke="#070707" stroke-width="4" stroke-linecap="round" stroke-linejoin="round"/>
<path d="M474.351 383.163C464.594 445.868 357.657 483.093 279.286 475.73C183.12 466.675 131.512 420.276 110.098 394.911C108.226 392.702 107.027 390.001 106.646 387.131C106.264 384.261 106.714 381.341 107.944 378.72C168.047 382.816 248.447 385.317 336.783 385.317C385.784 385.317 432.342 384.546 474.351 383.163Z" fill="#F7F3EF" stroke="#070707" stroke-width="4" stroke-linecap="round" stroke-linejoin="round"/>
<path d="M574.421 342.348L573.298 342.806L474.366 383.081V383.163C432.357 384.546 385.799 385.317 336.797 385.317C248.461 385.317 168.061 382.816 107.958 378.72C109.577 375.201 112.488 372.44 116.087 371.01L198.752 337.896C198.752 337.896 200.857 337.795 204.838 337.626C238.597 336.214 407.121 330.09 574.421 342.348Z" fill="#F7F3EF" stroke="#070707" stroke-width="4" stroke-linecap="round" stroke-linejoin="round"/>
<path d="M176.918 368.683C180.455 371.709 184.479 373.41 188.681 372.109L192.473 370.933C195.133 370.114 196.974 368.524 198.549 366.461C200.062 364.5 200.39 360.896 199.595 358.269C197.981 352.921 191.678 350.078 186.344 351.74L183.394 352.651C179.506 353.855 177.54 355.643 176.335 357.951C175.713 359.127 175.342 360.9 174.533 361.98C173.8 362.944 172.649 363.608 173.044 365.449C173.439 367.29 174.673 366.774 176.918 368.683Z" fill="#F7F3EF" stroke="#070707" stroke-width="4" stroke-linecap="round" stroke-linejoin="round"/>
<path d="M237.397 343.177C237.529 343.177 237.659 343.204 237.78 343.256C237.901 343.308 238.01 343.384 238.1 343.48C238.191 343.575 238.26 343.689 238.305 343.812C238.35 343.936 238.369 344.067 238.361 344.199C237.879 352.28 231.475 358.655 223.669 358.655C215.863 358.655 209.478 352.265 208.977 344.199C208.969 344.067 208.988 343.936 209.033 343.812C209.078 343.689 209.148 343.575 209.238 343.48C209.328 343.384 209.437 343.308 209.558 343.256C209.679 343.204 209.809 343.177 209.941 343.177H237.397Z" fill="#F7F3EF" stroke="#070707" stroke-width="4" stroke-linecap="round" stroke-linejoin="round"/>
<path d="M237.605 343.177C237.605 350.887 231.34 355.079 223.659 355.079C215.978 355.079 209.714 350.878 209.714 343.177H237.605Z" fill="#F7F3EF" stroke="#070707" stroke-width="4" stroke-linecap="round" stroke-linejoin="round"/>
<path d="M226.305 351.615C226.325 351.679 226.332 351.747 226.324 351.815C226.316 351.882 226.294 351.947 226.259 352.005C226.225 352.063 226.178 352.113 226.123 352.152C226.068 352.191 226.005 352.218 225.939 352.232C224.426 352.437 222.893 352.437 221.38 352.232C221.314 352.218 221.252 352.19 221.197 352.151C221.142 352.112 221.097 352.062 221.063 352.003C221.028 351.945 221.007 351.881 220.999 351.814C220.992 351.747 220.999 351.679 221.019 351.615L223.235 345.688C223.267 345.6 223.325 345.524 223.401 345.47C223.477 345.416 223.568 345.388 223.662 345.388C223.755 345.388 223.846 345.416 223.923 345.47C223.999 345.524 224.057 345.6 224.088 345.688L226.305 351.615Z" fill="#F7F3EF" stroke="#070707" stroke-width="4" stroke-linecap="round" stroke-linejoin="round"/>
<path d="M235.003 343.462C234.93 344.608 234.648 345.732 234.169 346.777C234.137 346.842 234.08 346.891 234.012 346.915C233.943 346.938 233.868 346.934 233.803 346.902L227.481 343.683C227.438 343.651 227.406 343.608 227.389 343.558C227.371 343.508 227.369 343.454 227.381 343.402C227.394 343.351 227.422 343.305 227.461 343.269C227.5 343.233 227.549 343.21 227.601 343.201H234.742C234.811 343.204 234.875 343.232 234.924 343.28C234.972 343.328 235 343.393 235.003 343.462V343.462Z" fill="#F7F3EF" stroke="#070707" stroke-width="4" stroke-linecap="round" stroke-linejoin="round"/>
<path d="M219.573 343.833L213.579 346.888C213.537 346.912 213.491 346.927 213.443 346.932C213.395 346.937 213.346 346.931 213.3 346.915C213.255 346.9 213.213 346.875 213.178 346.842C213.143 346.809 213.115 346.768 213.097 346.724C212.645 345.723 212.376 344.649 212.302 343.553C212.298 343.507 212.305 343.461 212.32 343.417C212.336 343.374 212.36 343.334 212.392 343.3C212.424 343.267 212.462 343.24 212.505 343.222C212.547 343.205 212.593 343.196 212.639 343.197H219.385C219.464 343.188 219.542 343.208 219.608 343.252C219.673 343.296 219.721 343.361 219.744 343.436C219.766 343.512 219.761 343.593 219.73 343.665C219.699 343.738 219.643 343.797 219.573 343.833V343.833Z" fill="#F7F3EF" stroke="#070707" stroke-width="4" stroke-linecap="round" stroke-linejoin="round"/>
<path d="M232.815 348.81C231.638 350.11 230.143 351.081 228.478 351.629C228.37 351.667 228.251 351.662 228.147 351.614C228.043 351.566 227.961 351.48 227.919 351.374L225.51 345.249C225.475 345.166 225.467 345.074 225.487 344.986C225.507 344.897 225.554 344.817 225.621 344.757C225.688 344.696 225.772 344.658 225.861 344.647C225.951 344.636 226.042 344.653 226.122 344.695L232.709 348.131C232.766 348.164 232.815 348.21 232.852 348.264C232.889 348.318 232.913 348.38 232.923 348.445C232.934 348.51 232.929 348.577 232.91 348.64C232.892 348.703 232.859 348.761 232.815 348.81V348.81Z" fill="#F7F3EF" stroke="#070707" stroke-width="4" stroke-linecap="round" stroke-linejoin="round"/>
<path d="M221.52 345.326L219.188 351.263C219.14 351.378 219.049 351.469 218.935 351.519C218.821 351.568 218.692 351.571 218.576 351.528C216.979 350.966 215.552 350.007 214.427 348.743C214.382 348.688 214.35 348.624 214.333 348.555C214.316 348.486 214.314 348.415 214.328 348.345C214.342 348.276 214.371 348.21 214.413 348.153C214.455 348.096 214.509 348.049 214.571 348.015L220.86 344.734C220.945 344.694 221.041 344.68 221.135 344.693C221.228 344.707 221.316 344.748 221.386 344.812C221.456 344.875 221.507 344.957 221.53 345.049C221.554 345.14 221.551 345.237 221.52 345.326V345.326Z" fill="#F7F3EF" stroke="#070707" stroke-width="4" stroke-linecap="round" stroke-linejoin="round"/>
<path d="M619.129 267.611C615.274 282.173 603.511 322.77 592.472 321.908C579.023 320.857 595.662 259.988 595.662 259.988C595.662 259.988 609.053 206.428 622.531 206.89C636.009 207.353 619.129 267.611 619.129 267.611Z" fill="#F7F3EF" stroke="#070707" stroke-width="4" stroke-linecap="round" stroke-linejoin="round"/>
<path d="M603.26 294.697C603.299 293.817 601.162 293.009 598.487 292.892C595.812 292.776 593.613 293.394 593.575 294.274C593.536 295.154 595.673 295.963 598.348 296.079C601.023 296.196 603.222 295.577 603.26 294.697Z" fill="#F7F3EF" stroke="#070707" stroke-width="4" stroke-linecap="round" stroke-linejoin="round"/>
<path d="M617.674 228.994C620.351 228.994 622.521 228.28 622.521 227.399C622.521 226.518 620.351 225.804 617.674 225.804C614.996 225.804 612.826 226.518 612.826 227.399C612.826 228.28 614.996 228.994 617.674 228.994Z" fill="#F7F3EF" stroke="#070707" stroke-width="4" stroke-linecap="round" stroke-linejoin="round"/>
<path d="M614.243 243.112C617.814 243.112 620.709 242.159 620.709 240.983C620.709 239.806 617.814 238.853 614.243 238.853C610.671 238.853 607.776 239.806 607.776 240.983C607.776 242.159 610.671 243.112 614.243 243.112Z" fill="#F7F3EF" stroke="#070707" stroke-width="4" stroke-linecap="round" stroke-linejoin="round"/>
<path d="M608.696 257.347C612.704 257.347 615.953 256.277 615.953 254.957C615.953 253.637 612.704 252.567 608.696 252.567C604.689 252.567 601.439 253.637 601.439 254.957C601.439 256.277 604.689 257.347 608.696 257.347Z" fill="#F7F3EF" stroke="#070707" stroke-width="4" stroke-linecap="round" stroke-linejoin="round"/>
<path d="M608.649 282.125C608.701 280.95 605.85 279.871 602.282 279.715C598.714 279.559 595.78 280.386 595.728 281.561C595.677 282.736 598.528 283.815 602.096 283.971C605.664 284.126 608.598 283.3 608.649 282.125Z" fill="#F7F3EF" stroke="#070707" stroke-width="4" stroke-linecap="round" stroke-linejoin="round"/>
<path d="M611.46 271.117C611.518 269.798 608.318 268.587 604.314 268.413C600.31 268.238 597.018 269.165 596.96 270.484C596.902 271.803 600.102 273.013 604.106 273.188C608.11 273.363 611.403 272.436 611.46 271.117Z" fill="#F7F3EF" stroke="#070707" stroke-width="4" stroke-linecap="round" stroke-linejoin="round"/>
<path d="M546.993 254.716C546.993 254.716 549.687 251.14 545.581 247.42L546.988 246.91C548.066 247.583 548.986 248.479 549.689 249.538C550.391 250.597 550.859 251.794 551.06 253.049L546.993 254.716Z" fill="#F7F3EF" stroke="#070707" stroke-width="4" stroke-linecap="round" stroke-linejoin="round"/>
<path d="M552.337 285.58C550.672 286.186 548.841 286.156 547.197 285.495C545.552 284.834 544.21 283.589 543.427 281.999L535.269 267.269C533.385 263.414 536.026 258.527 540.04 257.067L540.151 257.024C541.037 256.7 541.979 256.555 542.922 256.595C543.864 256.636 544.79 256.861 545.646 257.26C546.501 257.658 547.27 258.221 547.908 258.916C548.546 259.612 549.041 260.426 549.364 261.313L556.63 276.371C557.281 278.162 557.194 280.137 556.389 281.864C555.584 283.59 554.127 284.927 552.337 285.58Z" fill="#EFAF00" stroke="black" stroke-width="4" stroke-linecap="round" stroke-linejoin="round"/>
<path d="M566.451 280.433C568.117 279.826 569.499 278.625 570.333 277.06C571.166 275.496 571.392 273.678 570.966 271.957L567.882 255.376C566.856 251.232 561.521 249.232 557.512 250.697L557.397 250.736C556.51 251.059 555.696 251.554 555 252.192C554.305 252.83 553.742 253.598 553.344 254.454C552.945 255.309 552.72 256.235 552.679 257.178C552.639 258.121 552.784 259.062 553.108 259.949L557.242 276.145C557.895 277.934 559.232 279.391 560.959 280.195C562.686 281 564.661 281.085 566.451 280.433V280.433Z" fill="#EFAF00" stroke="black" stroke-width="4" stroke-linecap="round" stroke-linejoin="round"/>
<path d="M559.878 283.936C559.129 284.211 558.333 284.334 557.535 284.3C556.738 284.266 555.955 284.075 555.232 283.738C554.509 283.401 553.859 282.924 553.32 282.336C552.781 281.747 552.363 281.058 552.091 280.308L545.104 261.154C544.553 259.64 544.626 257.969 545.306 256.509C545.987 255.049 547.219 253.918 548.733 253.367V253.367C549.482 253.093 550.278 252.97 551.075 253.004C551.871 253.038 552.654 253.229 553.377 253.565C554.1 253.902 554.75 254.377 555.289 254.965C555.828 255.553 556.246 256.241 556.52 256.99L563.507 276.145C564.058 277.659 563.985 279.33 563.305 280.791C562.625 282.252 561.392 283.384 559.878 283.936V283.936Z" fill="#EFAF00" stroke="black" stroke-width="4" stroke-linecap="round" stroke-linejoin="round"/>
<path d="M527.367 268.42C527.367 268.42 516.525 248.008 484.635 264.705Z" fill="#F7F3EF"/>
<path d="M527.367 268.42C527.367 268.42 516.525 248.008 484.635 264.705" stroke="#070707" stroke-width="4" stroke-linecap="round" stroke-linejoin="round"/>
<path d="M498.888 259.139C498.888 259.139 492.311 260.869 492.311 262.565C492.311 264.262 495.597 263.346 495.597 263.346C495.597 263.346 490.831 265.702 490.995 267.269C491.159 268.835 494.532 267.269 494.532 267.269C494.532 267.269 492.243 272.044 494.05 272.569C495.857 273.094 495.934 269.394 495.934 269.394C495.934 269.394 498.233 271.205 498.893 270.56C499.553 269.914 497.332 265.428 497.332 265.428C497.332 265.428 499.466 268.237 500.782 267.244C502.097 266.252 498.324 261.881 498.888 259.139Z" fill="#F7F3EF" stroke="#070707" stroke-width="4" stroke-linecap="round" stroke-linejoin="round"/>
<path d="M487.497 263.279C487.497 263.279 481.473 261.65 480.572 263.279C479.671 264.907 482.558 264.204 482.558 264.204C482.558 264.204 477.05 266.7 477.498 268.42C477.946 270.14 480.842 268.42 480.842 268.42C480.842 268.42 480.36 272.521 482.485 271.731C484.61 270.94 484.22 265.37 487.497 263.279Z" fill="#F7F3EF" stroke="#070707" stroke-width="4" stroke-linecap="round" stroke-linejoin="round"/>
<path d="M520.654 247.146C520.654 247.146 525.473 244.857 525.304 243.382C525.136 241.908 523.521 243.903 523.521 243.903C523.521 243.903 526.003 239.407 524.861 238.602C523.719 237.797 522.615 240.419 522.615 240.419C522.615 240.419 520.958 237.667 519.898 239.311C518.838 240.954 521.835 244.086 520.654 247.146Z" fill="#F7F3EF" stroke="#070707" stroke-width="4" stroke-linecap="round" stroke-linejoin="round"/>
<path d="M529.164 268.42C529.164 268.42 523.863 248.509 500.618 249.719" stroke="#070707" stroke-width="4" stroke-linecap="round" stroke-linejoin="round"/>
<path d="M501.871 249.449C501.871 249.449 499.254 256.243 496.643 254.904C494.031 253.564 497.746 252.355 497.746 252.355C497.746 252.355 490.104 254.282 490.403 251.55C490.701 248.818 496.132 249.897 496.132 249.897C496.132 249.897 493.241 248.278 496.132 247.575C499.023 246.871 501.871 249.449 501.871 249.449Z" fill="#F7F3EF" stroke="#070707" stroke-width="4" stroke-linecap="round" stroke-linejoin="round"/>
<path d="M514.881 252.133C514.881 252.133 514.072 245.493 511.316 245.493C508.559 245.493 511.875 249.666 511.875 249.666C511.875 249.666 508.554 246.905 507.952 248.813C507.35 250.721 511.325 251.646 511.325 251.646C511.325 251.646 508.767 254.865 510.68 254.706C512.593 254.547 514.881 252.133 514.881 252.133Z" fill="#F7F3EF" stroke="#070707" stroke-width="4" stroke-linecap="round" stroke-linejoin="round"/>
<path d="M514.481 259.11C514.481 259.11 508.106 257.091 506.96 259.592C505.813 262.093 510.988 260.812 510.988 260.812C510.988 260.812 507.099 262.686 508.579 264.03C510.058 265.375 512.549 262.146 512.549 262.146C512.549 262.146 514.419 265.808 515.065 264.001C515.71 262.194 514.481 259.11 514.481 259.11Z" fill="#F7F3EF" stroke="#070707" stroke-width="4" stroke-linecap="round" stroke-linejoin="round"/>
<path d="M519.238 252.586C519.238 252.586 524.538 249.57 523.574 248.1C522.611 246.63 519.368 250.413 519.368 250.413C519.368 250.413 518.245 246.216 516.905 246.881C515.566 247.546 519.238 252.586 519.238 252.586Z" fill="#F7F3EF" stroke="#070707" stroke-width="4" stroke-linecap="round" stroke-linejoin="round"/>
<path d="M523.695 268.179C523.695 268.179 515.093 251.487 521.912 245.257" stroke="#070707" stroke-width="4" stroke-linecap="round" stroke-linejoin="round"/>
<path d="M566.061 222.325C566.061 222.325 573.395 235.219 570.793 287.348L575.968 287.512C575.968 287.512 577.678 238.462 566.061 222.325Z" fill="#F7F3EF" stroke="#070707" stroke-width="4" stroke-linecap="round" stroke-linejoin="round"/>
<path d="M570.793 287.348C570.793 287.348 580.709 220.32 573.684 203.778C573.684 203.778 584.588 220.359 575.949 287.512L570.793 287.348Z" fill="#F7F3EF" stroke="#070707" stroke-width="4" stroke-linecap="round" stroke-linejoin="round"/>
<path d="M570.793 287.348C573.775 263.279 595.108 231.933 595.108 231.933C595.108 231.933 578.059 269.832 575.968 287.497L570.793 287.348Z" fill="#F7F3EF" stroke="#070707" stroke-width="4" stroke-linecap="round" stroke-linejoin="round"/>
<path d="M568.566 306.44C568.566 306.44 570.147 297.25 570.793 287.348C570.793 287.348 573.544 285.088 575.968 287.512C575.465 294.365 575.545 301.248 576.209 308.088L568.566 306.44Z" fill="#F7F3EF" stroke="#070707" stroke-width="4" stroke-linecap="round" stroke-linejoin="round"/>
<path d="M576.187 308.657C576.539 307.426 575.123 305.942 573.025 305.343C570.927 304.743 568.941 305.255 568.589 306.486C568.237 307.716 569.653 309.2 571.751 309.8C573.85 310.4 575.836 309.888 576.187 308.657Z" fill="#F7F3EF" stroke="#070707" stroke-width="4" stroke-linecap="round" stroke-linejoin="round"/>
<path d="M575.394 308.377V308.401C575.294 308.671 575.124 308.91 574.901 309.092C574.679 309.275 574.412 309.396 574.127 309.442C573.416 309.603 572.675 309.575 571.978 309.36C570.364 308.878 569.318 307.76 569.569 306.762V306.729C569.669 306.459 569.839 306.22 570.062 306.037C570.284 305.854 570.552 305.734 570.836 305.688C571.547 305.527 572.288 305.555 572.985 305.77C574.614 306.247 575.659 307.379 575.394 308.377ZM570.012 306.873C569.814 307.611 570.764 308.55 572.098 308.931C572.723 309.125 573.388 309.152 574.026 309.008C574.237 308.982 574.438 308.901 574.607 308.772C574.776 308.644 574.908 308.472 574.99 308.276V308.276C575.187 307.543 574.238 306.603 572.903 306.223C572.279 306.029 571.614 306.002 570.976 306.146C570.765 306.171 570.564 306.253 570.395 306.381C570.225 306.51 570.093 306.682 570.012 306.878V306.873Z" fill="#F7F3EF" stroke="#070707" stroke-width="4" stroke-linecap="round" stroke-linejoin="round"/>
<path d="M573.819 307.943C573.674 308.449 572.951 308.671 572.171 308.449C571.39 308.227 570.903 307.664 571.038 307.162C571.183 306.681 571.906 306.435 572.686 306.681C573.457 306.873 573.978 307.437 573.819 307.943ZM571.467 307.283C571.405 307.509 571.742 307.876 572.291 308.03C572.841 308.184 573.322 308.03 573.385 307.832C573.448 307.611 573.11 307.244 572.561 307.085C572.012 306.931 571.53 307.061 571.467 307.288V307.283Z" fill="#F7F3EF" stroke="#070707" stroke-width="4" stroke-linecap="round" stroke-linejoin="round"/>
<path d="M627.306 268.17L614.512 365.685H608.846L594.226 268.17H627.306Z" fill="#F7F3EF" stroke="#070707" stroke-width="4" stroke-linecap="round" stroke-linejoin="round"/>
<path d="M630.915 271.326L618.348 366.172H612.686L598.288 271.326H630.915Z" fill="#F7F3EF" stroke="#070707" stroke-width="4" stroke-linecap="round" stroke-linejoin="round"/>
<path d="M627.672 268.17L614.879 365.685H609.212L594.587 268.17H627.672Z" fill="#F7F3EF" stroke="#070707" stroke-width="4" stroke-linecap="round" stroke-linejoin="round"/>
<path d="M609.212 365.685H529.569L516.77 268.17H594.587L609.212 365.685Z" fill="#F7F3EF" stroke="#070707" stroke-width="4" stroke-linecap="round" stroke-linejoin="round"/>
<path d="M485.873 316.106C485.873 316.106 489.299 313.889 486.967 309.36H488.345C489.059 310.323 489.562 311.426 489.824 312.596C490.085 313.766 490.098 314.978 489.863 316.154L485.873 316.106Z" fill="#F7F3EF" stroke="#070707" stroke-width="4" stroke-linecap="round" stroke-linejoin="round"/>
<path d="M480.389 344.459C478.755 344.442 477.185 343.82 475.981 342.714C474.777 341.608 474.025 340.096 473.87 338.469L471.624 323.112C471.248 319.195 475.118 315.822 479.054 315.884H479.17C480.927 315.905 482.603 316.622 483.831 317.878C485.059 319.134 485.738 320.826 485.719 322.582L487.082 337.93C487.06 339.683 486.342 341.355 485.087 342.579C483.832 343.804 482.142 344.48 480.389 344.459V344.459Z" fill="#EA631F" stroke="#070707" stroke-width="4" stroke-linecap="round" stroke-linejoin="round"/>
<path d="M494.238 344.613C495.873 344.633 497.457 344.046 498.685 342.967C499.913 341.888 500.698 340.392 500.888 338.768L503.625 323.464C504.107 319.556 500.136 316.096 496.199 316.053H496.089C494.332 316.034 492.64 316.713 491.384 317.941C490.128 319.169 489.411 320.845 489.391 322.601L487.69 337.915C487.67 339.672 488.349 341.364 489.577 342.62C490.805 343.876 492.482 344.593 494.238 344.613Z" fill="#EA631F" stroke="#070707" stroke-width="4" stroke-linecap="round" stroke-linejoin="round"/>
<path d="M487.429 345.495C485.944 345.479 484.526 344.873 483.487 343.811C482.448 342.749 481.872 341.319 481.888 339.833L482.095 321.04C482.112 319.555 482.717 318.137 483.779 317.097C484.841 316.058 486.272 315.483 487.757 315.499V315.499C489.243 315.515 490.661 316.121 491.7 317.183C492.739 318.244 493.314 319.675 493.299 321.161L493.091 339.954C493.084 340.689 492.931 341.416 492.643 342.093C492.354 342.77 491.935 343.383 491.409 343.898C490.883 344.412 490.261 344.818 489.578 345.092C488.895 345.367 488.165 345.503 487.429 345.495V345.495Z" fill="#EA631F" stroke="#070707" stroke-width="4" stroke-linecap="round" stroke-linejoin="round"/>
<g style="mix-blend-mode:multiply">
<path d="M357.874 295.549C357.874 310.69 351.86 325.21 341.154 335.916C330.448 346.622 315.928 352.636 300.787 352.636V352.636C285.647 352.635 271.128 346.62 260.422 335.915C249.717 325.209 243.702 310.689 243.7 295.549H357.874Z" fill="#F7F3EF"/>
<path d="M357.874 295.549C357.874 310.69 351.86 325.21 341.154 335.916C330.448 346.622 315.928 352.636 300.787 352.636V352.636C285.647 352.635 271.128 346.62 260.422 335.915C249.717 325.209 243.702 310.689 243.7 295.549H357.874Z" stroke="#070707" stroke-width="4" stroke-linecap="round" stroke-linejoin="round"/>
</g>
<path d="M357.691 295.366C357.69 310.506 351.675 325.026 340.969 335.731C330.264 346.437 315.744 352.452 300.604 352.453V352.453C285.464 352.452 270.945 346.437 260.239 335.731C249.533 325.026 243.519 310.506 243.517 295.366H357.691Z" fill="#F7F3EF" stroke="#070707" stroke-width="4" stroke-linecap="round" stroke-linejoin="round"/>
<path d="M310.606 344.968C315.698 343.221 318.771 338.729 317.469 334.936C316.168 331.142 310.984 329.484 305.892 331.231C300.8 332.978 297.727 337.47 299.029 341.264C300.33 345.057 305.514 346.716 310.606 344.968Z" fill="#F7F3EF" stroke="#070707" stroke-width="4" stroke-linecap="round" stroke-linejoin="round"/>
<path d="M309.761 344.595C314.202 342.843 316.722 338.686 315.39 335.309C314.058 331.932 309.378 330.615 304.937 332.367C300.495 334.119 297.975 338.277 299.307 341.654C300.639 345.031 305.32 346.348 309.761 344.595Z" fill="#F7F3EF" stroke="#070707" stroke-width="4" stroke-linecap="round" stroke-linejoin="round"/>
<path d="M308.989 336.185C308.883 336.667 307.471 337.963 307.471 337.963C307.471 337.963 306.652 336.662 306.758 336.185C306.858 335.922 307.038 335.696 307.273 335.54C307.508 335.385 307.786 335.307 308.068 335.318C308.685 335.318 309.1 335.708 308.989 336.185Z" fill="#F7F3EF" stroke="#070707" stroke-width="4" stroke-linecap="round" stroke-linejoin="round"/>
<path d="M305.726 340.734C305.832 340.252 307.244 338.956 307.244 338.956C307.244 338.956 308.063 340.252 307.957 340.734C307.857 340.997 307.677 341.223 307.442 341.377C307.206 341.532 306.928 341.609 306.647 341.597C306.03 341.597 305.616 341.211 305.726 340.734Z" fill="#F7F3EF" stroke="#070707" stroke-width="4" stroke-linecap="round" stroke-linejoin="round"/>
<path d="M304.613 337.592C305.23 337.592 306.705 338.46 306.705 338.46C306.705 338.46 304.835 339.327 304.218 339.327C303.601 339.327 303.192 338.937 303.303 338.46C303.401 338.195 303.581 337.969 303.817 337.813C304.052 337.657 304.331 337.58 304.613 337.592V337.592Z" fill="#F7F3EF" stroke="#070707" stroke-width="4" stroke-linecap="round" stroke-linejoin="round"/>
<path d="M310.087 339.327C309.471 339.327 307.996 338.46 307.996 338.46C307.996 338.46 309.866 337.592 310.482 337.592C311.099 337.592 311.509 337.983 311.398 338.46C311.299 338.724 311.119 338.951 310.884 339.107C310.648 339.263 310.369 339.34 310.087 339.327V339.327Z" fill="#F7F3EF" stroke="#070707" stroke-width="4" stroke-linecap="round" stroke-linejoin="round"/>
<path d="M293.265 338.691C295.256 338.691 296.87 337.077 296.87 335.087C296.87 333.096 295.256 331.482 293.265 331.482C291.275 331.482 289.661 333.096 289.661 335.087C289.661 337.077 291.275 338.691 293.265 338.691Z" fill="#F7F3EF" stroke="#070707" stroke-width="4" stroke-linecap="round" stroke-linejoin="round"/>
<path d="M326.443 329.81C327.033 327.5 325.639 325.148 323.329 324.558C321.019 323.967 318.667 325.361 318.077 327.671C317.486 329.982 318.88 332.333 321.19 332.924C323.501 333.514 325.852 332.12 326.443 329.81Z" fill="#F7F3EF" stroke="#070707" stroke-width="4" stroke-linecap="round" stroke-linejoin="round"/>
<path d="M266.642 326.965C267.153 324.635 265.678 322.333 263.349 321.823C261.02 321.312 258.718 322.787 258.207 325.116C257.697 327.445 259.171 329.747 261.501 330.258C263.83 330.768 266.132 329.294 266.642 326.965Z" fill="#F7F3EF" stroke="#070707" stroke-width="4" stroke-linecap="round" stroke-linejoin="round"/>
<path d="M276.283 341.916C278.236 341.278 278.527 336.809 276.934 331.934C275.341 327.059 272.466 323.625 270.513 324.264C268.561 324.902 268.269 329.371 269.862 334.245C271.456 339.12 274.33 342.554 276.283 341.916Z" fill="#F7F3EF" stroke="#070707" stroke-width="4" stroke-linecap="round" stroke-linejoin="round"/>
<path d="M272.81 326.081C274.333 325.95 276.496 329.319 277.397 333.709C278.101 337.12 278.062 340.214 276.145 340.378C275.099 340.469 273.489 338.098 272.29 333.766C271.09 329.434 270.907 326.244 272.81 326.081Z" fill="#F7F3EF" stroke="#070707" stroke-width="4" stroke-linecap="round" stroke-linejoin="round"/>
<path d="M300.39 311.468C302.837 306.961 303.841 302.776 302.631 302.119C301.422 301.463 298.458 304.584 296.011 309.091C293.564 313.598 292.561 317.783 293.77 318.44C294.979 319.096 297.943 315.975 300.39 311.468Z" fill="#F7F3EF" stroke="#070707" stroke-width="4" stroke-linecap="round" stroke-linejoin="round"/>
<path d="M293.983 315.778C293.28 314.983 294.542 311.249 296.966 307.505C298.845 304.589 300.821 302.344 301.717 303.346C302.199 303.891 301.346 306.565 299.077 310.439C296.807 314.313 294.865 316.776 293.983 315.778Z" fill="#F7F3EF" stroke="#070707" stroke-width="4" stroke-linecap="round" stroke-linejoin="round"/>
<path d="M316.94 322.047C321.165 320.226 327.237 319.392 334.576 323.372Z" fill="#F7F3EF"/>
<path d="M316.94 322.047C321.165 320.226 327.237 319.392 334.576 323.372" stroke="#070707" stroke-width="4" stroke-linecap="round" stroke-linejoin="round"/>
<path d="M333.843 322.813C333.843 322.813 333.439 328.013 335.544 327.955C337.65 327.897 335.617 325.965 335.617 325.965C335.617 325.965 339.954 329.56 340.614 327.709C341.274 325.859 337.419 324.871 337.419 324.871C337.419 324.871 339.79 324.717 338.137 323.368C336.484 322.018 333.843 322.813 333.843 322.813Z" fill="#F7F3EF" stroke="#070707" stroke-width="4" stroke-linecap="round" stroke-linejoin="round"/>
<path d="M324.596 320.534C324.596 320.534 327.165 316.487 328.933 317.335C330.702 318.183 327.28 319.864 327.28 319.864C327.28 319.864 330.282 319.098 330.085 320.525C329.887 321.951 327.035 321.32 327.035 321.32C327.035 321.32 327.695 324.211 326.509 323.498C325.324 322.785 324.596 320.534 324.596 320.534Z" fill="#F7F3EF" stroke="#070707" stroke-width="4" stroke-linecap="round" stroke-linejoin="round"/>
<path d="M281.869 337.139C282.679 340.893 285.888 346.521 297.448 348.979Z" fill="#F7F3EF"/>
<path d="M281.869 337.139C282.679 340.893 285.888 346.521 297.448 348.979" stroke="#070707" stroke-width="4" stroke-linecap="round" stroke-linejoin="round"/>
<path d="M289.969 346.507C289.969 346.507 293.145 347.981 293.704 347.307C294.263 346.632 292.658 345.919 292.658 345.919C292.658 345.919 295.318 346.55 295.771 345.876C296.224 345.201 294.369 344.714 294.369 344.714C294.369 344.714 296.841 343.572 296.296 342.787C295.752 342.001 294.509 343.428 294.509 343.428C294.509 343.428 294.191 341.953 293.718 341.982C293.246 342.011 292.653 344.531 292.653 344.531C292.653 344.531 292.73 342.715 291.882 342.676C291.034 342.638 291.121 345.606 289.969 346.507Z" fill="#F7F3EF" stroke="#070707" stroke-width="4" stroke-linecap="round" stroke-linejoin="round"/>
<path d="M295.843 348.603C295.843 348.603 297.699 351.229 298.59 350.878C299.481 350.526 298.108 349.861 298.108 349.861C298.108 349.861 301.11 350.68 301.481 349.861C301.852 349.042 300.156 348.762 300.156 348.762C300.156 348.762 301.708 347.317 300.595 346.907C299.481 346.497 297.833 348.854 295.843 348.603Z" fill="#F7F3EF" stroke="#070707" stroke-width="4" stroke-linecap="round" stroke-linejoin="round"/>
<path d="M283.777 341.394C283.777 341.394 285.642 344.286 286.919 343.674C288.196 343.062 285.724 341.867 285.724 341.867C285.724 341.867 287.883 342.402 287.733 341.385C287.584 340.368 285.541 340.826 285.541 340.826C285.541 340.826 286.023 338.763 285.151 339.265C284.278 339.766 283.777 341.394 283.777 341.394Z" fill="#F7F3EF" stroke="#070707" stroke-width="4" stroke-linecap="round" stroke-linejoin="round"/>
<path d="M315.59 345.505C319.301 346.502 325.772 346.218 333.236 337.053Z" fill="#F7F3EF"/>
<path d="M315.59 345.505C319.301 346.502 325.772 346.218 333.236 337.053" stroke="#070707" stroke-width="4" stroke-linecap="round" stroke-linejoin="round"/>
<path d="M327.623 342.58C327.623 342.58 330.384 340.426 330.032 339.621C329.68 338.816 328.316 339.92 328.316 339.92C328.316 339.92 330.095 337.838 329.699 337.13C329.304 336.421 328.027 337.848 328.027 337.848C328.027 337.848 328.143 335.125 327.179 335.231C326.215 335.337 326.929 337.115 326.929 337.115C326.929 337.115 325.483 336.72 325.29 337.164C325.098 337.607 327.073 339.274 327.073 339.274C327.073 339.274 325.493 338.378 325.069 339.115C324.645 339.852 327.338 341.163 327.623 342.58Z" fill="#F7F3EF" stroke="#070707" stroke-width="4" stroke-linecap="round" stroke-linejoin="round"/>
<path d="M332.171 338.31C332.171 338.31 335.352 337.857 335.448 336.903C335.544 335.949 334.321 336.87 334.321 336.87C334.321 336.87 336.421 334.571 335.862 333.848C335.304 333.125 334.277 334.528 334.277 334.528C334.277 334.528 333.684 332.485 332.832 333.294C331.979 334.104 333.299 336.653 332.171 338.31Z" fill="#F7F3EF" stroke="#070707" stroke-width="4" stroke-linecap="round" stroke-linejoin="round"/>
<path d="M320.25 345.76C320.25 345.76 323.676 345.423 323.71 344.006C323.744 342.589 321.556 344.242 321.556 344.242C321.556 344.242 323.001 342.57 322.038 342.238C321.074 341.905 320.544 343.934 320.544 343.934C320.544 343.934 318.915 342.58 318.973 343.563C319.031 344.546 320.25 345.76 320.25 345.76Z" fill="#F7F3EF" stroke="#070707" stroke-width="4" stroke-linecap="round" stroke-linejoin="round"/>
<path d="M283.657 322.308C283.657 322.308 287.126 318.226 286.346 316.959C285.565 315.691 284.934 318.173 284.934 318.173C284.934 318.173 285.343 313.046 283.97 312.8C282.597 312.555 282.64 316.226 282.64 316.226C282.64 316.226 280.101 313.73 279.816 315.663C279.532 317.595 282.11 320.144 283.657 322.308Z" fill="#F7F3EF" stroke="#070707" stroke-width="4" stroke-linecap="round" stroke-linejoin="round"/>
<path d="M284.621 327.849C284.621 327.849 288.206 322.91 286.697 321.98C285.189 321.05 283.806 325.835 283.806 325.835C283.806 325.835 281.05 322.462 280.105 323.638C279.161 324.813 284.621 327.849 284.621 327.849Z" fill="#F7F3EF" stroke="#070707" stroke-width="4" stroke-linecap="round" stroke-linejoin="round"/>
<path d="M286.461 330.976C284.095 327.478 282.544 323.507 284.023 320.057Z" fill="#F7F3EF"/>
<path d="M286.461 330.976C284.095 327.478 282.544 323.507 284.023 320.057" stroke="#070707" stroke-width="4" stroke-linecap="round" stroke-linejoin="round"/>
<path d="M485.574 350.376C485.578 350.644 485.499 350.907 485.348 351.129C485.197 351.35 484.982 351.52 484.731 351.615L481.584 352.897L452.354 364.794C450.808 365.428 449.154 365.755 447.483 365.758H332.716C332.536 365.76 332.356 365.726 332.189 365.658C332.022 365.59 331.871 365.489 331.744 365.36C331.617 365.232 331.517 365.08 331.451 364.912C331.384 364.744 331.352 364.565 331.357 364.384C331.354 364.116 331.434 363.853 331.585 363.631C331.737 363.41 331.954 363.24 332.205 363.146L364.582 349.962C366.127 349.33 367.78 349.003 369.449 348.998H484.215C484.396 348.996 484.576 349.03 484.743 349.098C484.91 349.167 485.062 349.268 485.189 349.397C485.316 349.526 485.416 349.679 485.482 349.847C485.548 350.016 485.579 350.196 485.574 350.376Z" fill="#F7F3EF" stroke="#070707" stroke-width="4" stroke-linecap="round" stroke-linejoin="round"/>
<path d="M485.574 350.376V354.27C485.578 354.538 485.499 354.8 485.348 355.022C485.197 355.244 484.982 355.413 484.731 355.508L452.354 368.687C450.808 369.321 449.154 369.649 447.483 369.651H332.716C332.536 369.654 332.356 369.62 332.189 369.552C332.022 369.483 331.871 369.382 331.744 369.254C331.617 369.126 331.517 368.973 331.451 368.805C331.384 368.638 331.353 368.458 331.357 368.278V364.384C331.353 364.565 331.384 364.744 331.451 364.912C331.517 365.08 331.617 365.232 331.744 365.36C331.871 365.489 332.022 365.59 332.189 365.658C332.356 365.726 332.536 365.76 332.716 365.758H447.483C449.154 365.755 450.808 365.428 452.354 364.794L481.584 352.897L484.731 351.615C484.982 351.52 485.197 351.35 485.348 351.129C485.499 350.907 485.578 350.644 485.574 350.376V350.376Z" fill="#F7F3EF" stroke="#070707" stroke-width="4" stroke-linecap="round" stroke-linejoin="round"/>
<path d="M395.176 352.077L419.38 345.269C419.528 345.228 419.667 345.157 419.787 345.062C419.908 344.967 420.008 344.848 420.082 344.714C420.157 344.579 420.203 344.431 420.219 344.278C420.235 344.125 420.22 343.97 420.175 343.823L419.178 340.45C419.137 340.305 419.068 340.169 418.975 340.05C418.882 339.931 418.766 339.832 418.634 339.758C418.503 339.684 418.358 339.637 418.208 339.62C418.058 339.602 417.906 339.614 417.761 339.655L393.552 346.464C393.404 346.506 393.267 346.577 393.147 346.672C393.027 346.768 392.927 346.886 392.853 347.021C392.779 347.155 392.732 347.303 392.716 347.455C392.699 347.608 392.713 347.762 392.757 347.909L393.754 351.282C393.795 351.428 393.865 351.564 393.958 351.683C394.052 351.801 394.168 351.9 394.3 351.974C394.432 352.048 394.578 352.095 394.728 352.113C394.878 352.131 395.03 352.119 395.176 352.077V352.077Z" fill="#F7F3EF" stroke="#070707" stroke-width="4" stroke-linecap="round" stroke-linejoin="round"/>
<path d="M356.313 357.609L392.656 347.384L395.099 356.058C395.099 356.058 371.386 366.625 356.313 357.609Z" fill="#F7F3EF" stroke="#070707" stroke-width="4" stroke-linecap="round" stroke-linejoin="round"/>
<path d="M450.354 357.571C456.797 357.571 462.021 352.803 462.021 346.921C462.021 341.04 456.797 336.272 450.354 336.272C443.911 336.272 438.688 341.04 438.688 346.921C438.688 352.803 443.911 357.571 450.354 357.571Z" fill="#F7F3EF" stroke="#070707" stroke-width="4" stroke-linecap="round" stroke-linejoin="round"/>
<path d="M448.186 357.084C453.24 357.084 457.337 352.888 457.337 347.712C457.337 342.535 453.24 338.339 448.186 338.339C443.132 338.339 439.035 342.535 439.035 347.712C439.035 352.888 443.132 357.084 448.186 357.084Z" fill="#F7F3EF" stroke="#070707" stroke-width="4" stroke-linecap="round" stroke-linejoin="round"/>
<path d="M449.424 344.618C449.424 345.269 448.186 347.027 448.186 347.027C448.186 347.027 446.952 345.259 446.952 344.618C446.972 344.304 447.111 344.008 447.341 343.793C447.57 343.577 447.873 343.457 448.188 343.457C448.503 343.457 448.807 343.577 449.036 343.793C449.266 344.008 449.405 344.304 449.424 344.618Z" fill="#F7F3EF" stroke="#070707" stroke-width="4" stroke-linecap="round" stroke-linejoin="round"/>
<path d="M446.952 350.805C446.952 350.155 448.186 348.396 448.186 348.396C448.186 348.396 449.424 350.16 449.424 350.805C449.405 351.12 449.266 351.415 449.036 351.631C448.807 351.846 448.503 351.966 448.188 351.966C447.873 351.966 447.57 351.846 447.341 351.631C447.111 351.415 446.972 351.12 446.952 350.805V350.805Z" fill="#F7F3EF" stroke="#070707" stroke-width="4" stroke-linecap="round" stroke-linejoin="round"/>
<path d="M444.943 346.531C445.623 346.531 447.478 347.712 447.478 347.712C447.478 347.712 445.623 348.892 444.943 348.892C444.63 348.892 444.33 348.768 444.108 348.546C443.887 348.325 443.763 348.025 443.763 347.712C443.763 347.399 443.887 347.098 444.108 346.877C444.33 346.655 444.63 346.531 444.943 346.531Z" fill="#F7F3EF" stroke="#070707" stroke-width="4" stroke-linecap="round" stroke-linejoin="round"/>
<path d="M451.434 348.892C450.75 348.892 448.899 347.712 448.899 347.712C448.899 347.712 450.75 346.531 451.434 346.531C451.747 346.531 452.047 346.655 452.269 346.877C452.49 347.098 452.614 347.399 452.614 347.712C452.614 348.025 452.49 348.325 452.269 348.546C452.047 348.768 451.747 348.892 451.434 348.892Z" fill="#F7F3EF" stroke="#070707" stroke-width="4" stroke-linecap="round" stroke-linejoin="round"/>
<path d="M442.223 355.704C447.266 352.647 449.336 346.839 446.846 342.731C444.356 338.623 438.25 337.771 433.206 340.828C428.163 343.884 426.093 349.693 428.583 353.801C431.073 357.909 437.179 358.761 442.223 355.704Z" fill="#F7F3EF" stroke="#070707" stroke-width="4" stroke-linecap="round" stroke-linejoin="round"/>
<path d="M441.347 354.99C445.62 351.911 447.038 346.576 444.514 343.074C441.99 339.572 436.48 339.229 432.208 342.308C427.935 345.388 426.517 350.723 429.041 354.225C431.565 357.727 437.075 358.069 441.347 354.99Z" fill="#F7F3EF" stroke="#070707" stroke-width="4" stroke-linecap="round" stroke-linejoin="round"/>
<path d="M438.525 345.905C438.409 346.493 436.896 348.083 436.896 348.083C436.896 348.083 436.019 346.493 436.134 345.905C436.219 345.597 436.402 345.325 436.657 345.133C436.911 344.94 437.222 344.837 437.542 344.84C437.682 344.824 437.823 344.842 437.955 344.892C438.087 344.941 438.206 345.021 438.302 345.124C438.397 345.228 438.467 345.352 438.506 345.488C438.545 345.623 438.551 345.766 438.525 345.905V345.905Z" fill="#F7F3EF" stroke="#070707" stroke-width="4" stroke-linecap="round" stroke-linejoin="round"/>
<path d="M435.031 351.48C435.147 350.892 436.655 349.302 436.655 349.302C436.655 349.302 437.537 350.892 437.421 351.48C437.336 351.787 437.152 352.057 436.898 352.249C436.643 352.441 436.333 352.543 436.014 352.54C435.874 352.555 435.733 352.537 435.602 352.488C435.47 352.439 435.352 352.36 435.256 352.257C435.161 352.154 435.091 352.03 435.052 351.895C435.012 351.76 435.005 351.618 435.031 351.48Z" fill="#F7F3EF" stroke="#070707" stroke-width="4" stroke-linecap="round" stroke-linejoin="round"/>
<path d="M433.855 347.63C434.515 347.63 436.091 348.69 436.091 348.69C436.091 348.69 434.096 349.755 433.436 349.755C433.297 349.767 433.158 349.747 433.028 349.696C432.899 349.645 432.783 349.565 432.69 349.462C432.596 349.359 432.528 349.235 432.49 349.101C432.453 348.967 432.447 348.827 432.472 348.69C432.556 348.387 432.737 348.119 432.986 347.928C433.236 347.737 433.541 347.632 433.855 347.63V347.63Z" fill="#F7F3EF" stroke="#070707" stroke-width="4" stroke-linecap="round" stroke-linejoin="round"/>
<path d="M439.7 349.755C439.04 349.755 437.464 348.69 437.464 348.69C437.464 348.69 439.459 347.63 440.12 347.63C440.258 347.618 440.397 347.638 440.526 347.688C440.655 347.739 440.77 347.819 440.864 347.921C440.957 348.024 441.025 348.147 441.063 348.28C441.101 348.413 441.108 348.553 441.083 348.69C441 348.994 440.82 349.262 440.571 349.455C440.321 349.647 440.015 349.752 439.7 349.755Z" fill="#F7F3EF" stroke="#070707" stroke-width="4" stroke-linecap="round" stroke-linejoin="round"/>
<path d="M433.057 356.829C438.149 355.082 441.222 350.59 439.92 346.797C438.618 343.003 433.435 341.345 428.343 343.092C423.25 344.84 420.177 349.331 421.479 353.125C422.781 356.918 427.964 358.577 433.057 356.829Z" fill="#F7F3EF" stroke="#070707" stroke-width="4" stroke-linecap="round" stroke-linejoin="round"/>
<path d="M432.208 356.472C436.649 354.72 439.169 350.562 437.837 347.185C436.505 343.808 431.825 342.491 427.384 344.243C422.942 345.996 420.422 350.153 421.754 353.53C423.086 356.907 427.767 358.224 432.208 356.472Z" fill="#F7F3EF" stroke="#070707" stroke-width="4" stroke-linecap="round" stroke-linejoin="round"/>
<path d="M431.441 348.054C431.33 348.536 429.918 349.832 429.918 349.832C429.918 349.832 429.099 348.536 429.21 348.054C429.309 347.789 429.489 347.563 429.724 347.407C429.96 347.251 430.239 347.174 430.521 347.186C431.138 347.206 431.547 347.577 431.441 348.054Z" fill="#F7F3EF" stroke="#070707" stroke-width="4" stroke-linecap="round" stroke-linejoin="round"/>
<path d="M428.174 352.603C428.285 352.121 429.697 350.825 429.697 350.825C429.697 350.825 430.516 352.121 430.405 352.603C430.306 352.867 430.126 353.093 429.891 353.248C429.655 353.403 429.376 353.479 429.094 353.465C428.478 353.47 428.068 353.08 428.174 352.603Z" fill="#F7F3EF" stroke="#070707" stroke-width="4" stroke-linecap="round" stroke-linejoin="round"/>
<path d="M427.08 349.461C427.692 349.461 429.167 350.328 429.167 350.328C429.167 350.328 427.302 351.196 426.685 351.196C426.068 351.196 425.659 350.805 425.765 350.328C425.865 350.064 426.046 349.837 426.282 349.682C426.518 349.526 426.798 349.449 427.08 349.461V349.461Z" fill="#F7F3EF" stroke="#070707" stroke-width="4" stroke-linecap="round" stroke-linejoin="round"/>
<path d="M432.535 351.196C431.923 351.196 430.448 350.328 430.448 350.328C430.448 350.328 432.313 349.461 432.93 349.461C433.547 349.461 433.956 349.851 433.85 350.328C433.75 350.593 433.569 350.819 433.333 350.975C433.097 351.131 432.818 351.208 432.535 351.196Z" fill="#F7F3EF" stroke="#070707" stroke-width="4" stroke-linecap="round" stroke-linejoin="round"/>
<path d="M181.939 240.52H188.873C189.468 240.52 190.038 240.756 190.458 241.176C190.878 241.597 191.114 242.166 191.114 242.761V257.622H179.699V242.761C179.699 242.166 179.935 241.597 180.355 241.176C180.775 240.756 181.345 240.52 181.939 240.52V240.52Z" fill="#F7F3EF" stroke="#070707" stroke-width="4" stroke-linecap="round" stroke-linejoin="round"/>
<path d="M187.876 257.622H190.574C194.013 257.622 197.312 258.988 199.743 261.42C202.175 263.851 203.541 267.15 203.541 270.589V343.144C203.541 344.166 203.135 345.146 202.412 345.869C201.689 346.592 200.709 346.998 199.687 346.998H178.788C177.765 346.998 176.785 346.592 176.062 345.869C175.339 345.146 174.933 344.166 174.933 343.144V270.589C174.933 267.154 176.296 263.859 178.722 261.428C181.149 258.997 184.441 257.628 187.876 257.622V257.622Z" fill="#1C0E0C"/>
<path d="M180.686 257.622H183.385C186.824 257.622 190.122 258.988 192.554 261.42C194.986 263.851 196.352 267.15 196.352 270.589V343.144C196.352 344.166 195.946 345.146 195.223 345.869C194.5 346.592 193.519 346.998 192.497 346.998H171.618C170.595 346.998 169.615 346.592 168.892 345.869C168.169 345.146 167.763 344.166 167.763 343.144V270.589C167.763 267.157 169.123 263.865 171.545 261.435C173.968 259.004 177.255 257.633 180.686 257.622Z" fill="#F7F3EF" stroke="#070707" stroke-width="4" stroke-linecap="round" stroke-linejoin="round"/>
<path d="M201.807 271.793V341.043C201.807 343.934 200.212 345.538 197.561 345.538H173.95C171.3 345.538 169.709 343.751 169.709 340.855V271.793H201.807Z" fill="#1C0E0C"/>
<path d="M190.319 293.14H173.642C172.188 293.14 171.011 294.318 171.011 295.771V306.724C171.011 308.177 172.188 309.355 173.642 309.355H190.319C191.772 309.355 192.95 308.177 192.95 306.724V295.771C192.95 294.318 191.772 293.14 190.319 293.14Z" fill="#F7F3EF" stroke="#070707" stroke-width="4" stroke-linecap="round" stroke-linejoin="round"/>
<path d="M180.686 257.622H183.385C186.824 257.622 190.122 258.988 192.554 261.42C194.986 263.851 196.352 267.15 196.352 270.589V343.144C196.352 344.166 195.946 345.146 195.223 345.869C194.5 346.592 193.519 346.998 192.497 346.998H171.618C170.595 346.998 169.615 346.592 168.892 345.869C168.169 345.146 167.763 344.166 167.763 343.144V270.589C167.763 267.157 169.123 263.865 171.545 261.435C173.968 259.004 177.255 257.633 180.686 257.622Z" fill="#F7F3EF" stroke="#070707" stroke-width="4" stroke-linecap="round" stroke-linejoin="round"/>
<path d="M83.2039 326.085C84.1043 321.722 81.2972 317.455 76.9342 316.555C72.5711 315.655 68.3043 318.462 67.4039 322.825C66.5035 327.188 69.3106 331.455 73.6737 332.355C78.0367 333.255 82.3036 330.448 83.2039 326.085Z" fill="#F7F3EF" stroke="#070707" stroke-width="4" stroke-linecap="round" stroke-linejoin="round"/>
<path d="M82.1444 324.747C83.0685 320.253 80.1746 315.861 75.6805 314.937C71.1865 314.012 66.7942 316.906 65.8701 321.4C64.946 325.894 67.84 330.287 72.334 331.211C76.828 332.135 81.2203 329.241 82.1444 324.747Z" fill="#F7F3EF" stroke="#070707" stroke-width="4" stroke-linecap="round" stroke-linejoin="round"/>
<path d="M73.0756 329.83H81.0265C82.8156 329.83 84.5316 330.54 85.7967 331.805C87.0619 333.071 87.7726 334.787 87.7726 336.576V352.362C87.7726 352.906 87.5563 353.428 87.1714 353.813C86.7864 354.198 86.2643 354.414 85.7198 354.414H68.363C67.8185 354.414 67.2964 354.198 66.9114 353.813C66.5265 353.428 66.3102 352.906 66.3102 352.362V336.605C66.3064 335.715 66.4787 334.833 66.8172 334.01C67.1557 333.187 67.6538 332.439 68.2826 331.809C68.9115 331.179 69.6588 330.68 70.4814 330.34C71.304 330.001 72.1856 329.827 73.0756 329.83V329.83Z" fill="#F7F3EF" stroke="#070707" stroke-width="4" stroke-linecap="round" stroke-linejoin="round"/>
<path d="M72.8925 329.83H80.8626C82.6518 329.83 84.3677 330.54 85.6329 331.805C86.898 333.071 87.6088 334.787 87.6088 336.576V352.362C87.6088 352.906 87.3925 353.428 87.0075 353.813C86.6226 354.198 86.1004 354.414 85.556 354.414H68.1798C67.6354 354.414 67.1133 354.198 66.7283 353.813C66.3434 353.428 66.1271 352.906 66.1271 352.362V336.605C66.1233 335.715 66.2956 334.833 66.6341 334.01C66.9726 333.187 67.4707 332.439 68.0995 331.809C68.7284 331.179 69.4756 330.68 70.2982 330.34C71.1209 330.001 72.0025 329.827 72.8925 329.83Z" fill="#1C0E0C"/>
<path d="M67.1438 329.83H75.1139C76.9031 329.83 78.619 330.54 79.8842 331.805C81.1493 333.071 81.8601 334.787 81.8601 336.576V352.362C81.8601 352.906 81.6438 353.428 81.2588 353.813C80.8739 354.198 80.3518 354.414 79.8073 354.414H62.4312C61.8867 354.414 61.3646 354.198 60.9796 353.813C60.5947 353.428 60.3784 352.906 60.3784 352.362V336.605C60.3746 335.715 60.5469 334.833 60.8854 334.01C61.2239 333.187 61.722 332.439 62.3508 331.809C62.9797 331.179 63.727 330.68 64.5496 330.34C65.3722 330.001 66.2539 329.827 67.1438 329.83V329.83Z" fill="#F7F3EF" stroke="#070707" stroke-width="4" stroke-linecap="round" stroke-linejoin="round"/>
<path d="M77.5474 338.787H67.0619C66.1517 338.787 65.4139 339.525 65.4139 340.435V345.741C65.4139 346.651 66.1517 347.389 67.0619 347.389H77.5474C78.4575 347.389 79.1954 346.651 79.1954 345.741V340.435C79.1954 339.525 78.4575 338.787 77.5474 338.787Z" fill="#F7F3EF" stroke="#070707" stroke-width="4" stroke-linecap="round" stroke-linejoin="round"/>
<path d="M76.2511 337.674H65.7657C64.8555 337.674 64.1177 338.412 64.1177 339.322V344.628C64.1177 345.538 64.8555 346.276 65.7657 346.276H76.2511C77.1613 346.276 77.8991 345.538 77.8991 344.628V339.322C77.8991 338.412 77.1613 337.674 76.2511 337.674Z" fill="#F7F3EF" stroke="#070707" stroke-width="4" stroke-linecap="round" stroke-linejoin="round"/>
<path d="M117.139 323.724C120.738 321.098 121.526 316.051 118.9 312.453C116.274 308.854 111.228 308.066 107.629 310.692C104.031 313.318 103.242 318.364 105.868 321.963C108.495 325.561 113.541 326.35 117.139 323.724Z" fill="#F7F3EF" stroke="#070707" stroke-width="4" stroke-linecap="round" stroke-linejoin="round"/>
<path d="M119.448 316.844C120.115 312.305 116.976 308.084 112.436 307.417C107.897 306.75 103.676 309.889 103.009 314.428C102.342 318.968 105.481 323.188 110.021 323.855C114.56 324.523 118.78 321.383 119.448 316.844Z" fill="#F7F3EF" stroke="#070707" stroke-width="4" stroke-linecap="round" stroke-linejoin="round"/>
<path d="M110.112 322.414H118.082C119.871 322.414 121.587 323.124 122.852 324.389C124.117 325.655 124.828 327.37 124.828 329.16V344.946C124.828 345.49 124.612 346.012 124.227 346.397C123.842 346.782 123.32 346.998 122.775 346.998H105.404C104.86 346.998 104.338 346.782 103.953 346.397C103.568 346.012 103.351 345.49 103.351 344.946V329.16C103.351 328.273 103.526 327.394 103.866 326.575C104.206 325.755 104.704 325.011 105.332 324.384C105.96 323.758 106.706 323.261 107.526 322.923C108.346 322.585 109.225 322.412 110.112 322.414Z" fill="#F7F3EF" stroke="#070707" stroke-width="4" stroke-linecap="round" stroke-linejoin="round"/>
<path d="M110.112 322.414H118.082C119.871 322.414 121.587 323.124 122.852 324.389C124.117 325.655 124.828 327.37 124.828 329.16V344.946C124.828 345.49 124.612 346.012 124.227 346.397C123.842 346.782 123.32 346.998 122.775 346.998H105.404C104.86 346.998 104.338 346.782 103.953 346.397C103.568 346.012 103.351 345.49 103.351 344.946V329.16C103.351 328.273 103.526 327.394 103.866 326.575C104.206 325.755 104.704 325.011 105.332 324.384C105.96 323.758 106.706 323.261 107.526 322.923C108.346 322.585 109.225 322.412 110.112 322.414Z" fill="#1C0E0C"/>
<path d="M104.368 322.414H112.348C114.137 322.414 115.853 323.124 117.118 324.389C118.383 325.655 119.094 327.371 119.094 329.16V344.946C119.094 345.49 118.878 346.012 118.493 346.397C118.108 346.782 117.586 346.998 117.041 346.998H99.6554C99.111 346.998 98.5889 346.782 98.2039 346.397C97.819 346.012 97.6027 345.49 97.6027 344.946V329.16C97.6027 328.272 97.7778 327.393 98.1181 326.574C98.4583 325.754 98.9569 325.009 99.5854 324.383C100.214 323.756 100.96 323.259 101.781 322.922C102.601 322.584 103.481 322.411 104.368 322.414V322.414Z" fill="#F7F3EF" stroke="#070707" stroke-width="4" stroke-linecap="round" stroke-linejoin="round"/>
<path d="M114.801 331.473H104.315C103.405 331.473 102.667 332.211 102.667 333.121V338.426C102.667 339.336 103.405 340.074 104.315 340.074H114.801C115.711 340.074 116.449 339.336 116.449 338.426V333.121C116.449 332.211 115.711 331.473 114.801 331.473Z" fill="#F7F3EF" stroke="#070707" stroke-width="4" stroke-linecap="round" stroke-linejoin="round"/>
<path d="M113.5 330.36H103.014C102.104 330.36 101.366 331.097 101.366 332.008V337.313C101.366 338.223 102.104 338.961 103.014 338.961H113.5C114.41 338.961 115.148 338.223 115.148 337.313V332.008C115.148 331.097 114.41 330.36 113.5 330.36Z" fill="#F7F3EF" stroke="#070707" stroke-width="4" stroke-linecap="round" stroke-linejoin="round"/>
<path d="M484.268 150.815V211.401H533.226V155.143C533.226 152.733 530.764 150.806 527.718 150.806L484.268 150.815Z" fill="#1C0E0C"/>
<path d="M454.556 131.83H466.984V138.619L454.556 136.523V131.83Z" fill="#F7F3EF" stroke="#070707" stroke-width="4" stroke-linecap="round" stroke-linejoin="round"/>
<path d="M466.801 152.95H664.689" stroke="#070707" stroke-width="4" stroke-linecap="round" stroke-linejoin="round"/>
<path d="M687 119.402H444.861V131.835H687V119.402Z" fill="#F7F3EF" stroke="#070707" stroke-width="4" stroke-linecap="round" stroke-linejoin="round"/>
<path d="M466.989 131.83H454.556V152.95H466.989V131.83Z" fill="#F7F3EF" stroke="#070707" stroke-width="4" stroke-linecap="round" stroke-linejoin="round"/>
<path d="M665.065 131.83H677.493V138.619L665.065 136.523V131.83Z" fill="#F7F3EF" stroke="#070707" stroke-width="4" stroke-linecap="round" stroke-linejoin="round"/>
<path d="M677.493 131.83H665.061V152.95H677.493V131.83Z" fill="#F7F3EF" stroke="#070707" stroke-width="4" stroke-linecap="round" stroke-linejoin="round"/>
<path d="M527.757 150.815C524.557 150.815 521.975 152.743 521.975 155.152V198.116H476.481V155.143C476.481 152.733 479.069 150.806 482.264 150.806L527.757 150.815Z" fill="#F7F3EF" stroke="#070707" stroke-width="4" stroke-linecap="round" stroke-linejoin="round"/>
<path d="M514.069 107.94C528.279 93.7307 528.279 70.6924 514.069 56.4829C499.86 42.2733 476.822 42.2733 462.612 56.4829C448.402 70.6924 448.402 93.7307 462.612 107.94C476.822 122.15 499.86 122.15 514.069 107.94Z" fill="#F7F3EF" stroke="#070707" stroke-width="4" stroke-linecap="round" stroke-linejoin="round"/>
<path d="M507.405 89.1407C511.228 78.6147 505.794 66.9827 495.268 63.1599C484.742 59.3371 473.11 64.771 469.287 75.297C465.465 85.823 470.898 97.4551 481.424 101.278C491.95 105.101 503.583 99.6667 507.405 89.1407Z" fill="#F7F3EF" stroke="#070707" stroke-width="4" stroke-linecap="round" stroke-linejoin="round"/>
<path d="M546.478 95.1115H594.92C594.919 96.1117 594.521 97.0707 593.813 97.778C593.106 98.4853 592.147 98.8832 591.147 98.8845H550.246C549.246 98.8832 548.288 98.4851 547.581 97.7777C546.874 97.0702 546.478 96.1113 546.478 95.1115V95.1115Z" fill="#F7F3EF" stroke="#070707" stroke-width="4" stroke-linecap="round" stroke-linejoin="round"/>
<path d="M542.016 103.491H599.358C599.358 104.676 598.887 105.812 598.049 106.65C597.212 107.487 596.076 107.958 594.891 107.958H546.482C545.298 107.958 544.162 107.487 543.324 106.65C542.486 105.812 542.016 104.676 542.016 103.491Z" fill="#F7F3EF" stroke="#070707" stroke-width="4" stroke-linecap="round" stroke-linejoin="round"/>
<path d="M535.91 113.182H605.492C605.492 114.618 604.921 115.996 603.906 117.011C602.89 118.027 601.512 118.598 600.076 118.598H541.322C539.886 118.595 538.511 118.024 537.496 117.008C536.482 115.993 535.911 114.617 535.91 113.182V113.182Z" fill="#F7F3EF" stroke="#070707" stroke-width="4" stroke-linecap="round" stroke-linejoin="round"/>
<path d="M539.789 91.2083H601.608C601.76 91.2112 601.906 91.2669 602.022 91.3658C602.137 91.4648 602.215 91.6008 602.241 91.7506C602.267 91.9004 602.241 92.0547 602.166 92.187C602.091 92.3193 601.972 92.4213 601.83 92.4756L595.276 94.885H546.126L539.568 92.4756C539.425 92.4213 539.307 92.3193 539.232 92.187C539.157 92.0547 539.13 91.9004 539.156 91.7506C539.182 91.6008 539.26 91.4648 539.375 91.3658C539.491 91.2669 539.637 91.2112 539.789 91.2083Z" fill="#F7F3EF" stroke="#070707" stroke-width="4" stroke-linecap="round" stroke-linejoin="round"/>
<path d="M546.121 94.8657H595.272C595.265 95.8789 594.86 96.8489 594.144 97.5658C593.428 98.2828 592.459 98.689 591.446 98.6966H549.942C549.439 98.6966 548.941 98.5974 548.477 98.4048C548.012 98.2122 547.59 97.93 547.235 97.5742C546.88 97.2184 546.598 96.7961 546.406 96.3313C546.214 95.8666 546.116 95.3685 546.116 94.8657H546.121Z" fill="#F7F3EF" stroke="#070707" stroke-width="4" stroke-linecap="round" stroke-linejoin="round"/>
<path d="M534.094 98.7351H607.299C607.481 98.736 607.656 98.8007 607.795 98.9179C607.934 99.0351 608.027 99.1973 608.059 99.3762C608.09 99.5551 608.058 99.7395 607.968 99.897C607.877 100.055 607.734 100.175 607.564 100.239L599.801 103.072H541.591L533.829 100.239C533.658 100.175 533.515 100.055 533.425 99.897C533.334 99.7395 533.302 99.5551 533.334 99.3762C533.365 99.1973 533.458 99.0351 533.597 98.9179C533.736 98.8007 533.912 98.736 534.094 98.7351V98.7351Z" fill="#F7F3EF" stroke="#070707" stroke-width="4" stroke-linecap="round" stroke-linejoin="round"/>
<path d="M541.591 103.072H599.801C599.801 104.273 599.324 105.425 598.474 106.275C597.625 107.124 596.473 107.601 595.272 107.601H546.121C545.526 107.602 544.936 107.485 544.386 107.258C543.836 107.031 543.336 106.697 542.915 106.276C542.494 105.856 542.16 105.356 541.932 104.806C541.704 104.257 541.587 103.667 541.587 103.072H541.591Z" fill="#F7F3EF" stroke="#070707" stroke-width="4" stroke-linecap="round" stroke-linejoin="round"/>
<path d="M526.302 107.645H615.096C615.317 107.642 615.533 107.718 615.704 107.859C615.875 108 615.99 108.198 616.029 108.416C616.068 108.634 616.028 108.859 615.916 109.051C615.804 109.242 615.628 109.388 615.418 109.461L606.003 112.902H535.395L525.979 109.461C525.77 109.388 525.593 109.242 525.482 109.051C525.37 108.859 525.33 108.634 525.369 108.416C525.407 108.198 525.522 108 525.693 107.859C525.864 107.718 526.08 107.642 526.302 107.645Z" fill="#F7F3EF" stroke="#070707" stroke-width="4" stroke-linecap="round" stroke-linejoin="round"/>
<path d="M535.395 112.902H606.003C606.003 113.624 605.861 114.339 605.584 115.005C605.308 115.672 604.903 116.278 604.392 116.788C603.881 117.298 603.275 117.703 602.608 117.979C601.941 118.254 601.226 118.396 600.505 118.395H540.893C540.171 118.396 539.456 118.254 538.789 117.979C538.122 117.703 537.516 117.298 537.005 116.788C536.495 116.278 536.09 115.672 535.813 115.005C535.537 114.339 535.395 113.624 535.395 112.902V112.902Z" fill="#F7F3EF" stroke="#070707" stroke-width="4" stroke-linecap="round" stroke-linejoin="round"/>
<path d="M560.148 155.995L575.828 171.724C578.112 174.013 577.992 177.839 575.554 180.262L569.593 186.209C567.159 188.618 563.329 188.748 561.054 186.459L545.369 170.731L560.148 155.995Z" fill="#F7F3EF" stroke="#070707" stroke-width="4" stroke-linecap="round" stroke-linejoin="round"/>
<path d="M563.309 159.166C566.08 156.4 570.431 156.275 573.033 158.882L576.199 162.057C578.796 164.664 578.657 169.016 575.886 171.781" stroke="#070707" stroke-width="4" stroke-linecap="round" stroke-linejoin="round"/>
<path d="M569.94 152.95H568.085V159.291H569.94V152.95Z" fill="#F7F3EF" stroke="#070707" stroke-width="4" stroke-linecap="round" stroke-linejoin="round"/>
<path d="M602.533 155.995L618.218 171.724C620.497 174.013 620.377 177.839 617.943 180.262L611.978 186.209C609.569 188.618 605.714 188.748 603.439 186.459L587.754 170.731L602.533 155.995Z" fill="#F7F3EF" stroke="#070707" stroke-width="4" stroke-linecap="round" stroke-linejoin="round"/>
<path d="M602.533 155.995L618.218 171.724C620.497 174.013 620.377 177.839 617.943 180.262L611.978 186.209C609.569 188.618 605.714 188.748 603.439 186.459L587.754 170.731L602.533 155.995Z" fill="#F7F3EF" stroke="#070707" stroke-width="4" stroke-linecap="round" stroke-linejoin="round"/>
<path d="M605.694 159.166C608.465 156.4 612.821 156.275 615.418 158.882L618.584 162.057C621.182 164.664 621.047 169.016 618.271 171.781" stroke="#070707" stroke-width="4" stroke-linecap="round" stroke-linejoin="round"/>
<path d="M595.247 169.685C595.463 169.901 595.609 170.176 595.669 170.475C595.728 170.774 595.697 171.084 595.58 171.365C595.464 171.647 595.266 171.888 595.012 172.057C594.759 172.226 594.461 172.317 594.156 172.317C593.851 172.317 593.553 172.226 593.3 172.057C593.046 171.888 592.849 171.647 592.732 171.365C592.615 171.084 592.584 170.774 592.643 170.475C592.703 170.176 592.849 169.901 593.065 169.685C593.208 169.542 593.378 169.428 593.565 169.35C593.752 169.273 593.953 169.233 594.156 169.233C594.359 169.233 594.56 169.273 594.747 169.35C594.934 169.428 595.104 169.542 595.247 169.685V169.685Z" fill="#F7F3EF" stroke="#070707" stroke-width="4" stroke-linecap="round" stroke-linejoin="round"/>
<path d="M603.603 161.33C603.819 161.546 603.967 161.822 604.026 162.122C604.086 162.422 604.055 162.733 603.938 163.015C603.821 163.298 603.623 163.54 603.369 163.71C603.114 163.88 602.815 163.97 602.509 163.97C602.203 163.97 601.904 163.88 601.65 163.71C601.395 163.54 601.197 163.298 601.08 163.015C600.963 162.733 600.932 162.422 600.992 162.122C601.052 161.822 601.199 161.546 601.415 161.33C601.559 161.186 601.729 161.071 601.917 160.993C602.105 160.915 602.306 160.875 602.509 160.875C602.713 160.875 602.914 160.915 603.102 160.993C603.289 161.071 603.46 161.186 603.603 161.33V161.33Z" fill="#F7F3EF" stroke="#070707" stroke-width="4" stroke-linecap="round" stroke-linejoin="round"/>
<path d="M599.425 165.508C599.641 165.723 599.787 165.998 599.846 166.297C599.906 166.596 599.875 166.906 599.758 167.188C599.641 167.469 599.444 167.71 599.19 167.879C598.937 168.048 598.639 168.139 598.334 168.139C598.029 168.139 597.731 168.048 597.477 167.879C597.224 167.71 597.026 167.469 596.909 167.188C596.793 166.906 596.762 166.596 596.821 166.297C596.88 165.998 597.027 165.723 597.242 165.508C597.386 165.364 597.556 165.25 597.743 165.173C597.93 165.095 598.131 165.055 598.334 165.055C598.537 165.055 598.737 165.095 598.925 165.173C599.112 165.25 599.282 165.364 599.425 165.508V165.508Z" fill="#F7F3EF" stroke="#070707" stroke-width="4" stroke-linecap="round" stroke-linejoin="round"/>
<path d="M596.197 175.439C596.412 175.655 596.559 175.929 596.618 176.228C596.677 176.527 596.646 176.837 596.53 177.119C596.413 177.401 596.215 177.641 595.962 177.81C595.708 177.98 595.41 178.07 595.105 178.07C594.8 178.07 594.502 177.98 594.249 177.81C593.995 177.641 593.798 177.401 593.681 177.119C593.564 176.837 593.534 176.527 593.593 176.228C593.652 175.929 593.799 175.655 594.014 175.439C594.157 175.295 594.327 175.182 594.515 175.104C594.702 175.026 594.903 174.986 595.105 174.986C595.308 174.986 595.509 175.026 595.696 175.104C595.883 175.182 596.054 175.295 596.197 175.439V175.439Z" fill="#F7F3EF" stroke="#070707" stroke-width="4" stroke-linecap="round" stroke-linejoin="round"/>
<path d="M604.972 166.669C605.187 166.885 605.333 167.159 605.393 167.458C605.452 167.757 605.421 168.067 605.304 168.349C605.188 168.631 604.99 168.871 604.736 169.04C604.483 169.21 604.185 169.3 603.88 169.3C603.575 169.3 603.277 169.21 603.024 169.04C602.77 168.871 602.573 168.631 602.456 168.349C602.339 168.067 602.308 167.757 602.368 167.458C602.427 167.159 602.573 166.885 602.789 166.669C602.932 166.525 603.102 166.411 603.289 166.334C603.477 166.256 603.677 166.216 603.88 166.216C604.083 166.216 604.284 166.256 604.471 166.334C604.658 166.411 604.828 166.525 604.972 166.669V166.669Z" fill="#F7F3EF" stroke="#070707" stroke-width="4" stroke-linecap="round" stroke-linejoin="round"/>
<path d="M609.357 162.279C609.572 162.495 609.718 162.77 609.778 163.069C609.837 163.368 609.806 163.678 609.689 163.959C609.573 164.241 609.375 164.481 609.121 164.651C608.868 164.82 608.57 164.91 608.265 164.91C607.96 164.91 607.662 164.82 607.409 164.651C607.155 164.481 606.958 164.241 606.841 163.959C606.724 163.678 606.693 163.368 606.753 163.069C606.812 162.77 606.958 162.495 607.174 162.279C607.317 162.135 607.487 162.021 607.674 161.943C607.861 161.865 608.062 161.824 608.265 161.824C608.468 161.824 608.669 161.865 608.856 161.943C609.044 162.021 609.214 162.135 609.357 162.279V162.279Z" fill="#F7F3EF" stroke="#070707" stroke-width="4" stroke-linecap="round" stroke-linejoin="round"/>
<path d="M600.587 171.054C600.802 171.27 600.948 171.544 601.008 171.843C601.067 172.142 601.036 172.452 600.919 172.734C600.803 173.016 600.605 173.256 600.351 173.425C600.098 173.595 599.8 173.685 599.495 173.685C599.19 173.685 598.892 173.595 598.639 173.425C598.385 173.256 598.188 173.016 598.071 172.734C597.954 172.452 597.923 172.142 597.983 171.843C598.042 171.544 598.188 171.27 598.404 171.054C598.547 170.91 598.717 170.797 598.904 170.719C599.092 170.641 599.292 170.601 599.495 170.601C599.698 170.601 599.899 170.641 600.086 170.719C600.273 170.797 600.443 170.91 600.587 171.054V171.054Z" fill="#F7F3EF" stroke="#070707" stroke-width="4" stroke-linecap="round" stroke-linejoin="round"/>
<path d="M601.955 176.388C602.17 176.604 602.317 176.879 602.376 177.178C602.435 177.477 602.405 177.787 602.288 178.068C602.171 178.35 601.973 178.59 601.72 178.76C601.466 178.929 601.169 179.019 600.864 179.019C600.559 179.019 600.261 178.929 600.007 178.76C599.754 178.59 599.556 178.35 599.439 178.068C599.323 177.787 599.292 177.477 599.351 177.178C599.41 176.879 599.557 176.604 599.772 176.388C599.915 176.245 600.086 176.131 600.273 176.053C600.46 175.975 600.661 175.935 600.864 175.935C601.066 175.935 601.267 175.975 601.454 176.053C601.642 176.131 601.812 176.245 601.955 176.388V176.388Z" fill="#F7F3EF" stroke="#070707" stroke-width="4" stroke-linecap="round" stroke-linejoin="round"/>
<path d="M610.306 168.037C610.521 168.253 610.668 168.528 610.727 168.827C610.786 169.126 610.755 169.436 610.639 169.717C610.522 169.999 610.324 170.24 610.071 170.409C609.817 170.578 609.519 170.669 609.214 170.669C608.91 170.669 608.612 170.578 608.358 170.409C608.105 170.24 607.907 169.999 607.79 169.717C607.673 169.436 607.643 169.126 607.702 168.827C607.761 168.528 607.908 168.253 608.123 168.037C608.266 167.894 608.436 167.78 608.624 167.702C608.811 167.625 609.012 167.585 609.214 167.585C609.417 167.585 609.618 167.625 609.805 167.702C609.992 167.78 610.163 167.894 610.306 168.037V168.037Z" fill="#F7F3EF" stroke="#070707" stroke-width="4" stroke-linecap="round" stroke-linejoin="round"/>
<path d="M606.133 172.215C606.348 172.431 606.495 172.706 606.554 173.005C606.613 173.304 606.583 173.614 606.466 173.895C606.349 174.177 606.151 174.417 605.898 174.587C605.644 174.756 605.346 174.846 605.041 174.846C604.737 174.846 604.439 174.756 604.185 174.587C603.932 174.417 603.734 174.177 603.617 173.895C603.5 173.614 603.47 173.304 603.529 173.005C603.588 172.706 603.735 172.431 603.95 172.215C604.093 172.072 604.263 171.958 604.451 171.88C604.638 171.802 604.839 171.762 605.041 171.762C605.244 171.762 605.445 171.802 605.632 171.88C605.819 171.958 605.99 172.072 606.133 172.215V172.215Z" fill="#F7F3EF" stroke="#070707" stroke-width="4" stroke-linecap="round" stroke-linejoin="round"/>
<path d="M602.89 182.147C603.105 182.362 603.252 182.637 603.311 182.936C603.37 183.235 603.34 183.545 603.223 183.827C603.106 184.108 602.908 184.349 602.655 184.518C602.401 184.687 602.103 184.778 601.798 184.778C601.494 184.778 601.196 184.687 600.942 184.518C600.689 184.349 600.491 184.108 600.374 183.827C600.257 183.545 600.227 183.235 600.286 182.936C600.345 182.637 600.492 182.362 600.707 182.147C600.85 182.003 601.02 181.889 601.208 181.811C601.395 181.734 601.596 181.694 601.798 181.694C602.001 181.694 602.202 181.734 602.389 181.811C602.577 181.889 602.747 182.003 602.89 182.147V182.147Z" fill="#F7F3EF" stroke="#070707" stroke-width="4" stroke-linecap="round" stroke-linejoin="round"/>
<path d="M610.585 176.007C611.437 176.007 612.127 175.317 612.127 174.466C612.127 173.614 611.437 172.924 610.585 172.924C609.734 172.924 609.043 173.614 609.043 174.466C609.043 175.317 609.734 176.007 610.585 176.007Z" fill="#F7F3EF" stroke="#070707" stroke-width="4" stroke-linecap="round" stroke-linejoin="round"/>
<path d="M614.975 171.622C615.827 171.622 616.517 170.932 616.517 170.08C616.517 169.229 615.827 168.539 614.975 168.539C614.124 168.539 613.433 169.229 613.433 170.08C613.433 170.932 614.124 171.622 614.975 171.622Z" fill="#F7F3EF" stroke="#070707" stroke-width="4" stroke-linecap="round" stroke-linejoin="round"/>
<path d="M607.289 177.761C607.505 177.977 607.651 178.252 607.711 178.551C607.77 178.85 607.739 179.16 607.622 179.442C607.505 179.723 607.308 179.964 607.054 180.133C606.801 180.302 606.503 180.393 606.198 180.393C605.893 180.393 605.595 180.302 605.342 180.133C605.088 179.964 604.89 179.723 604.774 179.442C604.657 179.16 604.626 178.85 604.685 178.551C604.745 178.252 604.891 177.977 605.106 177.761C605.249 177.617 605.419 177.503 605.607 177.425C605.794 177.347 605.995 177.307 606.198 177.307C606.401 177.307 606.602 177.347 606.789 177.425C606.976 177.503 607.146 177.617 607.289 177.761V177.761Z" fill="#F7F3EF" stroke="#070707" stroke-width="4" stroke-linecap="round" stroke-linejoin="round"/>
<path d="M608.672 183.096C608.888 183.312 609.034 183.586 609.094 183.885C609.153 184.184 609.122 184.494 609.005 184.776C608.888 185.057 608.691 185.298 608.437 185.467C608.184 185.637 607.886 185.727 607.581 185.727C607.276 185.727 606.978 185.637 606.725 185.467C606.471 185.298 606.273 185.057 606.157 184.776C606.04 184.494 606.009 184.184 606.068 183.885C606.128 183.586 606.274 183.312 606.489 183.096C606.633 182.952 606.803 182.838 606.99 182.761C607.177 182.683 607.378 182.643 607.581 182.643C607.784 182.643 607.984 182.683 608.172 182.761C608.359 182.838 608.529 182.952 608.672 183.096V183.096Z" fill="#F7F3EF" stroke="#070707" stroke-width="4" stroke-linecap="round" stroke-linejoin="round"/>
<path d="M617.013 174.745C617.229 174.961 617.375 175.236 617.435 175.535C617.494 175.834 617.463 176.143 617.346 176.425C617.23 176.707 617.032 176.947 616.778 177.117C616.525 177.286 616.227 177.376 615.922 177.376C615.617 177.376 615.319 177.286 615.066 177.117C614.812 176.947 614.614 176.707 614.498 176.425C614.381 176.143 614.35 175.834 614.409 175.535C614.469 175.236 614.615 174.961 614.831 174.745C614.974 174.601 615.144 174.488 615.331 174.41C615.518 174.332 615.719 174.292 615.922 174.292C616.125 174.292 616.326 174.332 616.513 174.41C616.7 174.488 616.87 174.601 617.013 174.745V174.745Z" fill="#F7F3EF" stroke="#070707" stroke-width="4" stroke-linecap="round" stroke-linejoin="round"/>
<path d="M612.84 178.923C613.057 179.139 613.204 179.415 613.264 179.715C613.323 180.015 613.293 180.326 613.176 180.608C613.059 180.891 612.86 181.133 612.606 181.303C612.352 181.473 612.053 181.563 611.747 181.563C611.441 181.563 611.142 181.473 610.887 181.303C610.633 181.133 610.435 180.891 610.318 180.608C610.201 180.326 610.17 180.015 610.23 179.715C610.289 179.415 610.436 179.139 610.653 178.923C610.796 178.779 610.966 178.664 611.154 178.586C611.342 178.508 611.543 178.468 611.747 178.468C611.95 178.468 612.151 178.508 612.339 178.586C612.527 178.664 612.697 178.779 612.84 178.923V178.923Z" fill="#F7F3EF" stroke="#070707" stroke-width="4" stroke-linecap="round" stroke-linejoin="round"/>
<path d="M611.804 152.95H609.949V159.291H611.804V152.95Z" fill="#F7F3EF" stroke="#070707" stroke-width="4" stroke-linecap="round" stroke-linejoin="round"/>
<path d="M644.918 155.995L660.603 171.724C662.883 174.013 662.762 177.839 660.329 180.262L654.363 186.209C651.954 188.618 648.099 188.748 645.824 186.459L630.14 170.731L644.918 155.995Z" fill="#F7F3EF" stroke="#070707" stroke-width="4" stroke-linecap="round" stroke-linejoin="round"/>
<path d="M648.08 159.166C650.85 156.4 655.206 156.275 657.804 158.882L660.97 162.057C663.572 164.664 663.432 169.016 660.661 171.781" stroke="#070707" stroke-width="4" stroke-linecap="round" stroke-linejoin="round"/>
<path d="M654.04 152.95H652.185V159.291H654.04V152.95Z" fill="#F7F3EF" stroke="#070707" stroke-width="4" stroke-linecap="round" stroke-linejoin="round"/>
<path d="M666.28 53.4395H661.866C661.078 53.4465 660.296 53.2978 659.565 53.002C658.835 52.7063 658.169 52.2692 657.608 51.7159C657.047 51.1626 656.6 50.5039 656.294 49.7776C655.987 49.0514 655.828 48.2718 655.823 47.4836V46.2018C655.822 45.4294 655.975 44.6646 656.271 43.9515C656.407 43.6132 656.578 43.2902 656.782 42.9878C657.076 42.274 657.229 41.5095 657.23 40.7374V39.8942C657.206 38.3119 656.557 36.8033 655.425 35.6975C654.293 34.5917 652.77 33.9784 651.188 33.9913H650.33C649.543 33.9843 648.763 34.1323 648.034 34.4269C647.304 34.7214 646.64 35.1568 646.079 35.708C645.518 36.2593 645.071 36.9157 644.763 37.6397C644.456 38.3638 644.294 39.1413 644.287 39.9279V40.7712C644.286 41.5435 644.439 42.3084 644.735 43.0215C644.937 43.325 645.108 43.6478 645.246 43.9852C645.543 44.6983 645.695 45.4632 645.694 46.2355V47.4836C645.694 50.7603 642.991 54.3839 639.652 54.3839H635.233C631.06 54.3839 627.677 56.7403 627.677 60.8458V111.519C627.696 113.505 628.503 115.402 629.919 116.793C631.336 118.184 633.247 118.957 635.233 118.94H666.28C668.265 118.957 670.176 118.184 671.593 116.793C673.01 115.402 673.816 113.505 673.835 111.519V60.8651C673.827 59.8813 673.625 58.9087 673.241 58.003C672.857 57.0973 672.298 56.2762 671.596 55.5866C670.895 54.897 670.064 54.3525 669.152 53.9841C668.239 53.6156 667.263 53.4306 666.28 53.4395ZM650.754 38.9593C651.083 38.965 651.404 39.0679 651.675 39.2551C651.946 39.4422 652.156 39.7053 652.278 40.0113C652.4 40.3173 652.429 40.6525 652.361 40.975C652.294 41.2974 652.132 41.5926 651.897 41.8236C651.662 42.0546 651.364 42.211 651.041 42.2732C650.717 42.3354 650.382 42.3006 650.079 42.1733C649.775 42.0459 649.515 41.8316 649.333 41.5573C649.15 41.283 649.053 40.9609 649.053 40.6314C649.055 40.4099 649.1 40.191 649.187 39.9871C649.273 39.7832 649.399 39.5983 649.557 39.4431C649.715 39.2878 649.902 39.1652 650.107 39.0822C650.313 38.9992 650.532 38.9574 650.754 38.9593V38.9593Z" fill="#F7F3EF" stroke="#070707" stroke-width="4" stroke-linecap="round" stroke-linejoin="round"/>
<path d="M664.034 52.6637H659.62C658.018 52.6637 656.481 52.027 655.347 50.8938C654.214 49.7606 653.578 48.2236 653.578 46.621V45.3152C653.579 44.5306 653.731 43.7535 654.026 43.0263C654.165 42.6897 654.336 42.367 654.537 42.0626C654.833 41.3343 654.985 40.5553 654.985 39.7689V38.916C654.985 38.1222 654.829 37.3362 654.526 36.6028C654.223 35.8694 653.777 35.203 653.216 34.6418C652.655 34.0805 651.989 33.6354 651.255 33.332C650.522 33.0286 649.736 32.8727 648.942 32.8733H648.089C647.295 32.8727 646.509 33.0286 645.776 33.332C645.043 33.6354 644.376 34.0805 643.815 34.6418C643.254 35.203 642.809 35.8694 642.505 36.6028C642.202 37.3362 642.046 38.1222 642.047 38.916V39.7737C642.046 40.5601 642.198 41.3391 642.495 42.0674C642.687 42.3719 642.848 42.6947 642.976 43.0311C643.275 43.7574 643.429 44.5348 643.429 45.32V46.6259C643.428 48.2281 642.791 49.7643 641.658 50.8972C640.525 52.0302 638.989 52.6672 637.387 52.6685H632.968C631.976 52.6679 630.993 52.8628 630.076 53.2423C629.159 53.6218 628.326 54.1783 627.624 54.8801C626.922 55.5818 626.366 56.415 625.986 57.332C625.607 58.249 625.412 59.2318 625.412 60.2242V111.784C625.412 112.776 625.608 113.759 625.988 114.676C626.367 115.592 626.924 116.425 627.625 117.127C628.327 117.828 629.16 118.385 630.077 118.765C630.993 119.144 631.976 119.34 632.968 119.34H664.01C665.003 119.34 665.986 119.145 666.903 118.766C667.82 118.387 668.654 117.83 669.356 117.128C670.058 116.427 670.615 115.594 670.995 114.677C671.375 113.76 671.571 112.777 671.571 111.784V60.2242C671.572 58.2228 670.779 56.3026 669.366 54.8852C667.953 53.4677 666.036 52.6688 664.034 52.6637V52.6637ZM648.513 41.3301C648.176 41.3301 647.846 41.2299 647.565 41.0423C647.284 40.8546 647.066 40.588 646.937 40.276C646.808 39.964 646.774 39.6208 646.84 39.2897C646.907 38.9587 647.07 38.6548 647.309 38.4164C647.548 38.178 647.852 38.0159 648.183 37.9507C648.515 37.8854 648.858 37.9199 649.169 38.0497C649.481 38.1796 649.747 38.399 649.934 38.6801C650.121 38.9613 650.22 39.2915 650.219 39.6291C650.219 39.8529 650.175 40.0745 650.089 40.2812C650.003 40.4879 649.878 40.6756 649.719 40.8336C649.561 40.9916 649.373 41.1168 649.166 41.202C648.959 41.2872 648.737 41.3308 648.513 41.3301V41.3301Z" fill="#F7F3EF" stroke="#070707" stroke-width="4" stroke-linecap="round" stroke-linejoin="round"/>
<path d="M90.5867 63.949H105.086V83.5948C105.086 85.5118 104.325 87.3503 102.969 88.7058C101.614 90.0613 99.7751 90.8228 97.8581 90.8228V90.8228C95.9411 90.8228 94.1026 90.0613 92.7471 88.7058C91.3916 87.3503 90.6301 85.5118 90.6301 83.5948V63.949H90.5867Z" fill="#F7F3EF" stroke="#070707" stroke-width="4" stroke-linecap="round" stroke-linejoin="round"/>
<path d="M97.8389 90.8084V113.957" stroke="#070707" stroke-width="4" stroke-linecap="round" stroke-linejoin="round"/>
<path d="M105.501 119.402L97.8388 114.078L90.1723 119.402H105.501Z" fill="#F7F3EF" stroke="#070707" stroke-width="4" stroke-linecap="round" stroke-linejoin="round"/>
<path d="M115.273 63.949H129.772V83.5948C129.772 85.5118 129.011 87.3503 127.655 88.7058C126.3 90.0613 124.461 90.8228 122.544 90.8228V90.8228C120.627 90.8228 118.789 90.0613 117.433 88.7058C116.078 87.3503 115.316 85.5118 115.316 83.5948V63.949H115.273Z" fill="#F7F3EF" stroke="#070707" stroke-width="4" stroke-linecap="round" stroke-linejoin="round"/>
<path d="M122.525 90.8084V113.957" stroke="#070707" stroke-width="4" stroke-linecap="round" stroke-linejoin="round"/>
<path d="M130.187 119.402L122.525 114.078L114.863 119.402H130.187Z" fill="#F7F3EF" stroke="#070707" stroke-width="4" stroke-linecap="round" stroke-linejoin="round"/>
<path d="M139.964 63.949H154.463V83.5948C154.463 85.5118 153.702 87.3503 152.346 88.7058C150.991 90.0613 149.152 90.8228 147.235 90.8228V90.8228C145.318 90.8228 143.48 90.0613 142.124 88.7058C140.769 87.3503 140.007 85.5118 140.007 83.5948V63.949H139.964Z" fill="#F7F3EF" stroke="#070707" stroke-width="4" stroke-linecap="round" stroke-linejoin="round"/>
<path d="M147.211 90.8084V113.957" stroke="#070707" stroke-width="4" stroke-linecap="round" stroke-linejoin="round"/>
<path d="M154.878 119.402L147.216 114.078L139.549 119.402H154.878Z" fill="#F7F3EF" stroke="#070707" stroke-width="4" stroke-linecap="round" stroke-linejoin="round"/>
<path d="M36.2031 152.95H169.7" stroke="#070707" stroke-width="4" stroke-linecap="round" stroke-linejoin="round"/>
<path d="M169.575 131.83H182.007V138.619L169.575 136.523V131.83Z" fill="#F7F3EF" stroke="#070707" stroke-width="4" stroke-linecap="round" stroke-linejoin="round"/>
<path d="M23.7901 131.83H36.2223V138.619L23.7901 136.523V131.83Z" fill="#F7F3EF" stroke="#070707" stroke-width="4" stroke-linecap="round" stroke-linejoin="round"/>
<path d="M199.296 119.402H6.50548V131.835H199.296V119.402Z" fill="#F7F3EF" stroke="#070707" stroke-width="4" stroke-linecap="round" stroke-linejoin="round"/>
<path d="M36.2223 131.83H23.7901V152.95H36.2223V131.83Z" fill="#F7F3EF" stroke="#070707" stroke-width="4" stroke-linecap="round" stroke-linejoin="round"/>
<path d="M182.007 131.83H169.575V152.95H182.007V131.83Z" fill="#F7F3EF" stroke="#070707" stroke-width="4" stroke-linecap="round" stroke-linejoin="round"/>
<path d="M25.3562 91.8829H69.2062V96.9329C69.2062 102.745 66.8972 108.319 62.7873 112.429C58.6774 116.539 53.1031 118.848 47.2908 118.848C41.4785 118.848 35.9042 116.539 31.7943 112.429C27.6844 108.319 25.3754 102.745 25.3754 96.9329V91.8829H25.3562Z" fill="#E57B07" stroke="#070707" stroke-width="4" stroke-linecap="round" stroke-linejoin="round"/>
<path d="M45.0501 91.8829C45.0501 91.8829 46.8138 60.5952 57.4149 45.826Z" fill="#F7F3EF"/>
<path d="M45.0501 91.8829C45.0501 91.8829 46.8138 60.5952 57.4149 45.826" stroke="#070707" stroke-width="4" stroke-linecap="round" stroke-linejoin="round"/>
<path d="M48.8376 66.9029C48.8376 66.9029 50.606 53.2901 63.7755 52.495C63.7851 52.495 65.6452 67.1775 48.8376 66.9029Z" fill="#EFAF00" stroke="black" stroke-width="4" stroke-linecap="round" stroke-linejoin="round"/>
<path d="M51.0831 58.5665C51.0831 58.5665 58.5472 43.9129 47.2715 38.198C47.2956 38.2028 40.6025 51.9408 51.0831 58.5665Z" fill="#EFAF00" stroke="black" stroke-width="4" stroke-linecap="round" stroke-linejoin="round"/>
<path d="M22.3348 69.9579C22.3348 69.9579 21.6602 53.531 9.03045 54.0563C9.03045 54.0707 9.95083 69.317 22.3348 69.9579Z" fill="#EFAF00" stroke="black" stroke-width="4" stroke-linecap="round" stroke-linejoin="round"/>
<path d="M46.221 80.7903C46.221 80.7903 51.4011 64.1659 39.8074 58.5714C39.8074 58.5666 33.8949 75.1043 46.221 80.7903Z" fill="#EFAF00" stroke="black" stroke-width="4" stroke-linecap="round" stroke-linejoin="round"/>
<path d="M45.691 87.2955C45.691 87.2955 43.9804 71.9384 57.4582 69.6784C57.4582 69.6784 60.4506 85.0693 45.691 87.2955Z" fill="#EFAF00" stroke="black" stroke-width="4" stroke-linecap="round" stroke-linejoin="round"/>
<path d="M57.0486 46.303C57.0486 46.303 55.338 30.9507 68.8159 28.6907C68.8159 28.6907 71.8083 44.0575 57.0486 46.303Z" fill="#EFAF00" stroke="black" stroke-width="4" stroke-linecap="round" stroke-linejoin="round"/>
<path d="M22.0216 69.6784L38.3907 91.8829" stroke="#070707" stroke-width="4" stroke-linecap="round" stroke-linejoin="round"/>
<path d="M29.8279 80.2506C29.8279 80.2506 22.1806 70.3868 26.4548 59.6845C26.4693 59.6989 35.885 66.9125 29.8279 80.2506Z" fill="#EFAF00" stroke="black" stroke-width="4" stroke-linecap="round" stroke-linejoin="round"/>
<path d="M31.0711 81.9564C31.0711 81.9564 22.0216 88.0665 13.4492 76.7908C13.4492 76.7908 23.7564 72.0589 31.0711 81.9564Z" fill="#EFAF00" stroke="black" stroke-width="4" stroke-linecap="round" stroke-linejoin="round"/>
<path d="M38.3907 91.8155C38.3907 91.8155 31.2012 98.6002 21.8867 89.7868C21.8867 89.7916 30.3965 84.0285 38.3907 91.8155Z" fill="#EFAF00" stroke="black" stroke-width="4" stroke-linecap="round" stroke-linejoin="round"/>
<path d="M38.3907 91.8829C38.3907 91.8829 31.7072 84.2549 36.4632 76.4631C36.4729 76.4728 44.1201 84.1056 38.3907 91.8829Z" fill="#EFAF00" stroke="black" stroke-width="4" stroke-linecap="round" stroke-linejoin="round"/>
<path d="M57.4149 91.8636C57.4149 91.8636 59.3423 80.6024 69.505 79.2242C69.5242 79.2242 71.2493 91.8636 57.4149 91.8636Z" fill="#EFAF00" stroke="black" stroke-width="4" stroke-linecap="round" stroke-linejoin="round"/>
<path d="M99.6555 173.656H98.0557V218.6H99.6555V173.656Z" fill="#F7F3EF" stroke="#070707" stroke-width="4" stroke-linecap="round" stroke-linejoin="round"/>
<path d="M104.667 240.183H93.0443C92.6207 240.174 92.2039 240.074 91.8222 239.89C91.4405 239.706 91.1028 239.442 90.8319 239.117C90.561 238.791 90.3631 238.411 90.2519 238.002C90.1406 237.593 90.1184 237.165 90.1868 236.747L91.0252 220.643C91.1167 219.947 91.4559 219.307 91.9807 218.841C92.5055 218.374 93.1807 218.113 93.8827 218.104H103.824C104.526 218.112 105.202 218.374 105.728 218.84C106.253 219.307 106.593 219.946 106.686 220.643L107.529 236.747C107.598 237.166 107.575 237.594 107.464 238.003C107.352 238.412 107.154 238.793 106.883 239.118C106.611 239.444 106.273 239.708 105.89 239.892C105.508 240.075 105.091 240.175 104.667 240.183V240.183Z" fill="#F7F3EF" stroke="#070707" stroke-width="4" stroke-linecap="round" stroke-linejoin="round"/>
<path d="M98.8556 222.643V236.328" stroke="#070707" stroke-width="4" stroke-linecap="round" stroke-linejoin="round"/>
<path d="M102.412 223.785V235.191" stroke="#070707" stroke-width="4" stroke-linecap="round" stroke-linejoin="round"/>
<path d="M95.2994 223.785V235.191" stroke="#070707" stroke-width="4" stroke-linecap="round" stroke-linejoin="round"/>
<path d="M100.957 154.299L100.248 172.899C100.231 173.256 100.076 173.592 99.8165 173.837C99.557 174.083 99.2126 174.218 98.8556 174.215V174.215C98.4991 174.215 98.1564 174.077 97.8994 173.83C97.6424 173.583 97.4912 173.246 97.4775 172.89L96.7739 156.183C96.7739 155.634 96.6656 155.089 96.4552 154.581C96.2447 154.073 95.9363 153.611 95.5475 153.222C95.1586 152.834 94.697 152.525 94.1889 152.315C93.6809 152.104 93.1364 151.996 92.5865 151.996V151.996C92.6003 151.493 92.8101 151.016 93.1712 150.666C93.5322 150.315 94.0158 150.12 94.5188 150.122H96.798C97.9019 150.129 98.9581 150.572 99.7369 151.355C100.516 152.137 100.954 153.195 100.957 154.299V154.299Z" fill="#F7F3EF" stroke="#070707" stroke-width="4" stroke-linecap="round" stroke-linejoin="round"/>
<path d="M48.8473 173.656H47.2475V220.58H48.8473V173.656Z" fill="#F7F3EF" stroke="#070707" stroke-width="4" stroke-linecap="round" stroke-linejoin="round"/>
<path d="M29.5966 234.449C33.5287 240.082 40.8242 241.359 46.2837 237.292C51.7433 233.229 52.177 225.365 48.2401 219.727L29.5966 234.449Z" fill="#F7F3EF" stroke="#070707" stroke-width="4" stroke-linecap="round" stroke-linejoin="round"/>
<path d="M50.0905 154.299L49.3821 172.899C49.3684 173.257 49.2167 173.595 48.9588 173.843C48.7009 174.091 48.357 174.23 47.9992 174.229V174.229C47.6422 174.23 47.2989 174.092 47.0412 173.845C46.7834 173.598 46.6311 173.261 46.6162 172.904L45.9127 156.198C45.9127 155.088 45.4722 154.024 44.6879 153.239C43.9037 152.453 42.8398 152.012 41.7301 152.01V152.01C41.7301 151.507 41.9301 151.024 42.2861 150.668C42.6422 150.312 43.1251 150.112 43.6286 150.112H45.903C47.0136 150.112 48.0787 150.553 48.864 151.338C49.6493 152.124 50.0905 153.189 50.0905 154.299V154.299Z" fill="#F7F3EF" stroke="#070707" stroke-width="4" stroke-linecap="round" stroke-linejoin="round"/>
<path d="M126.987 173.656H125.387V218.6H126.987V173.656Z" fill="#F7F3EF" stroke="#070707" stroke-width="4" stroke-linecap="round" stroke-linejoin="round"/>
<path d="M132.056 224.267L131.093 240.419H130.905L129.459 225.389C129.384 224.565 129.009 223.796 128.404 223.231C127.813 222.674 127.032 222.364 126.221 222.363C125.406 222.374 124.624 222.687 124.026 223.24C123.428 223.794 123.056 224.549 122.983 225.36L121.446 240.419H121.383L120.419 224.267C120.395 222.701 120.992 221.19 122.081 220.066C123.17 218.941 124.66 218.294 126.226 218.267C126.994 218.268 127.753 218.424 128.46 218.725C129.166 219.027 129.804 219.467 130.336 220.021C131.438 221.16 132.055 222.682 132.056 224.267V224.267Z" fill="#F7F3EF" stroke="#070707" stroke-width="4" stroke-linecap="round" stroke-linejoin="round"/>
<path d="M128.288 154.299L127.58 172.899C127.566 173.257 127.414 173.595 127.156 173.843C126.899 174.091 126.555 174.23 126.197 174.229V174.229C125.84 174.23 125.498 174.092 125.241 173.845C124.984 173.598 124.832 173.261 124.819 172.904L124.115 156.198C124.115 155.088 123.675 154.024 122.89 153.239C122.106 152.453 121.042 152.012 119.933 152.01V152.01C119.933 151.508 120.132 151.026 120.487 150.67C120.842 150.314 121.324 150.113 121.826 150.112H124.105C125.215 150.113 126.279 150.555 127.063 151.34C127.848 152.125 128.288 153.19 128.288 154.299V154.299Z" fill="#F7F3EF" stroke="#070707" stroke-width="4" stroke-linecap="round" stroke-linejoin="round"/>
<path d="M73.6057 173.656H72.0059V209.107H73.6057V173.656Z" fill="#F7F3EF" stroke="#070707" stroke-width="4" stroke-linecap="round" stroke-linejoin="round"/>
<path d="M80.3663 228.309C80.8481 235.778 77.4461 240.414 72.8106 240.414C68.6954 240.414 64.6622 235.085 65.2501 228.309C65.8283 221.65 69.6832 208.611 72.8106 208.611C75.9379 208.611 79.9374 221.636 80.3663 228.309Z" fill="#F7F3EF" stroke="#070707" stroke-width="4" stroke-linecap="round" stroke-linejoin="round"/>
<path d="M77.5281 228.902C77.8268 236.005 75.0031 240.414 72.8058 240.414C71.0373 240.414 67.7221 235.345 68.0883 228.902C68.4497 222.566 70.8542 209.04 72.8058 209.04C74.7573 209.04 77.2582 222.556 77.5281 228.902Z" fill="#F7F3EF" stroke="#070707" stroke-width="4" stroke-linecap="round" stroke-linejoin="round"/>
<path d="M74.5742 154.299L73.8659 172.899C73.8522 173.257 73.7004 173.595 73.4426 173.843C73.1847 174.091 72.8407 174.23 72.4829 174.229V174.229C72.1259 174.23 71.7827 174.092 71.5249 173.845C71.2672 173.598 71.1149 173.261 71.1 172.904L70.3964 156.198C70.3971 155.648 70.2894 155.104 70.0794 154.596C69.8695 154.088 69.5615 153.626 69.1731 153.237C68.7846 152.848 68.3233 152.54 67.8156 152.329C67.3078 152.119 66.7635 152.01 66.2138 152.01V152.01C66.2238 151.511 66.4273 151.035 66.7815 150.682C67.1356 150.33 67.6128 150.129 68.1124 150.122H70.3916C71.4997 150.123 72.5621 150.563 73.3461 151.346C74.1301 152.129 74.5717 153.191 74.5742 154.299V154.299Z" fill="#F7F3EF" stroke="#070707" stroke-width="4" stroke-linecap="round" stroke-linejoin="round"/>
<path d="M72.8058 209.04V240.414" stroke="#070707" stroke-width="4" stroke-linecap="round" stroke-linejoin="round"/>
<path d="M183.761 168.779C183.166 168.107 182.376 167.637 181.501 167.435L167.189 164.38L164.096 161.007L144.484 178.981L162.053 198.149C168.009 204.65 177.207 206.259 182.701 201.547C185.592 199.06 186.922 195.364 186.71 191.427C186.408 187.284 184.689 183.37 181.843 180.344L179.019 177.265C178.282 176.456 178.446 175.285 179.342 175.024L183.433 173.825C183.71 173.725 183.964 173.571 184.18 173.372C185.288 172.389 185.182 170.326 183.761 168.779Z" fill="#F7F3EF" stroke="#070707" stroke-width="4" stroke-linecap="round" stroke-linejoin="round"/>
<path d="M181.988 169.709C181.393 169.037 180.603 168.567 179.728 168.365L165.416 165.31L162.322 161.937L142.706 179.911L160.275 199.079C166.23 205.58 175.429 207.189 180.927 202.452C183.819 199.966 185.144 196.27 184.932 192.333C184.631 188.189 182.912 184.276 180.065 181.25L177.246 178.171C176.504 177.362 176.668 176.191 177.564 175.93L181.655 174.726C181.932 174.63 182.187 174.477 182.402 174.278C183.515 173.319 183.409 171.256 181.988 169.709Z" fill="#E57B07" stroke="#070707" stroke-width="4" stroke-linecap="round" stroke-linejoin="round"/>
<path d="M158.463 154.15C158.516 155.277 160.718 158.728 160.718 158.728C160.718 158.728 162.602 155.099 162.554 153.967C162.52 153.431 162.277 152.931 161.878 152.572C161.478 152.214 160.954 152.027 160.418 152.051C159.882 152.075 159.377 152.308 159.012 152.701C158.646 153.093 158.449 153.614 158.463 154.15V154.15Z" fill="#F7F3EF" stroke="#070707" stroke-width="4" stroke-linecap="round" stroke-linejoin="round"/>
<path d="M160.279 159.277L139.877 177.974C139.792 178.051 139.724 178.144 139.676 178.248C139.627 178.352 139.6 178.465 139.595 178.579C139.59 178.694 139.607 178.808 139.647 178.916C139.686 179.024 139.746 179.123 139.824 179.207L141.27 180.783C141.347 180.867 141.44 180.936 141.544 180.984C141.648 181.033 141.761 181.06 141.875 181.065C141.99 181.07 142.104 181.052 142.212 181.013C142.32 180.974 142.419 180.913 142.503 180.836L162.944 162.139C163.115 161.982 163.217 161.763 163.227 161.531C163.237 161.299 163.154 161.072 162.997 160.901L161.551 159.33C161.473 159.241 161.377 159.168 161.27 159.117C161.162 159.066 161.046 159.037 160.927 159.032C160.808 159.027 160.689 159.046 160.578 159.088C160.467 159.131 160.365 159.195 160.279 159.277V159.277Z" fill="#E57B07" stroke="#070707" stroke-width="4" stroke-linecap="round" stroke-linejoin="round"/>
<path d="M260.421 5.1225H189.895V75.6488H260.421V5.1225Z" fill="#1C0E0C"/>
<path d="M257.294 2H186.768V72.5263H257.294V2Z" fill="#F7F3EF" stroke="#070707" stroke-width="4" stroke-linecap="round" stroke-linejoin="round"/>
<path d="M246.062 13.2324H198V61.2939H246.062V13.2324Z" fill="#F7F3EF" stroke="#070707" stroke-width="4" stroke-linecap="round" stroke-linejoin="round"/>
<path d="M222.291 26.5175C222.291 26.5175 223.611 22.1421 220.537 20.8121Z" fill="#F7F3EF"/>
<path d="M222.291 26.5175C222.291 26.5175 223.611 22.1421 220.537 20.8121" stroke="#070707" stroke-width="4" stroke-linecap="round" stroke-linejoin="round"/>
<path d="M228.801 33.3889C229.081 35.0337 229.7 36.6024 230.618 37.9956C231.65 39.5445 232.245 41.3439 232.339 43.2032C232.432 45.0626 232.021 46.9126 231.149 48.5573C230.277 50.2021 228.976 51.5803 227.384 52.546C225.793 53.5118 223.97 54.029 222.108 54.0431C220.246 54.0571 218.415 53.5674 216.809 52.6257C215.203 51.6841 213.882 50.3257 212.985 48.6942C212.088 47.0628 211.649 45.2192 211.715 43.3587C211.78 41.4982 212.348 39.69 213.357 38.1257C214.313 36.693 214.968 35.0817 215.285 33.3889L215.347 33.0275C215.424 32.5986 215.468 32.1649 215.506 31.7264C215.642 30.2518 216.323 28.8811 217.417 27.8827C218.511 26.8844 219.938 26.3305 221.419 26.3295H222.686C224.167 26.3294 225.595 26.883 226.689 27.8815C227.783 28.88 228.464 30.2514 228.599 31.7264C228.637 32.1649 228.681 32.5986 228.758 33.0275L228.801 33.3889Z" fill="#EFAF00" stroke="black" stroke-width="4" stroke-linecap="round" stroke-linejoin="round"/>
<path d="M222.855 26.2814C222.855 26.2814 222.532 22.2722 228.295 20.4604C228.295 20.4652 229.095 27.674 222.855 26.2814Z" fill="#F7F3EF" stroke="#070707" stroke-width="4" stroke-linecap="round" stroke-linejoin="round"/>
</svg>
