<svg width="419" height="323" viewBox="0 0 419 323" fill="none" xmlns="http://www.w3.org/2000/svg">
<path d="M202.683 103.898C202.683 103.898 216.564 80.8525 238.583 87.8477" stroke="#070707" stroke-width="4" stroke-linecap="round" stroke-linejoin="round"/>
<path d="M210.849 93.9736C210.849 93.9736 219.747 93.4055 217.803 97.7929C216.584 100.565 205.482 98.758 205.482 98.758C205.482 98.758 205.859 86.5746 210.739 86.6773C214.634 86.7526 210.849 93.9736 210.849 93.9736Z" stroke="#070707" stroke-width="4" stroke-linecap="round" stroke-linejoin="round"/>
<path d="M217.543 89.2714C217.543 89.2714 225.667 90.168 222.724 92.769C221.232 94.09 212.053 93.0085 212.053 93.0085C212.053 93.0085 216.16 82.1667 220.137 81.8313C224.113 81.496 217.543 89.2714 217.543 89.2714Z" stroke="#070707" stroke-width="4" stroke-linecap="round" stroke-linejoin="round"/>
<path d="M228.083 86.4172C228.083 86.4172 234.421 88.5801 232.224 90.6745C231.156 91.6875 222.566 87.6355 222.566 87.6355C222.566 87.6355 226.447 80.6404 230.219 81.7697C232.71 82.5363 228.083 86.4172 228.083 86.4172Z" stroke="#070707" stroke-width="4" stroke-linecap="round" stroke-linejoin="round"/>
<path d="M230.896 86.3419C230.896 86.3419 244.846 82.5568 244.106 88.3953C243.579 92.7553 230.896 86.3419 230.896 86.3419Z" stroke="#070707" stroke-width="4" stroke-linecap="round" stroke-linejoin="round"/>
<path d="M200.096 115.205C200.096 115.205 202.491 88.7786 180.178 82.7006" stroke="#070707" stroke-width="4" stroke-linecap="round" stroke-linejoin="round"/>
<path d="M196.626 95.1783C196.626 95.1783 189.405 91.5575 190.26 95.2741C190.698 97.17 198.898 101.208 198.898 101.208C198.898 101.208 201.999 90.0585 198.953 87.6629C195.907 85.2673 196.626 95.1783 196.626 95.1783Z" stroke="#070707" stroke-width="4" stroke-linecap="round" stroke-linejoin="round"/>
<path d="M189.658 87.1633C189.658 87.1633 183.149 85.5411 183.703 88.4432C183.97 89.8532 193.47 91.1331 193.47 91.1331C193.47 91.1331 194.476 83.2892 190.691 82.1941C188.193 81.4686 189.658 87.1633 189.658 87.1633Z" stroke="#070707" stroke-width="4" stroke-linecap="round" stroke-linejoin="round"/>
<path d="M187.365 85.5822C187.365 85.5822 178.159 74.9662 175.277 80.1476C173.101 84.0558 187.365 85.5822 187.365 85.5822Z" stroke="#070707" stroke-width="4" stroke-linecap="round" stroke-linejoin="round"/>
<path d="M198.802 102.557C198.802 102.557 212.327 77.4713 194.853 63.0087" stroke="#070707" stroke-width="4" stroke-linecap="round" stroke-linejoin="round"/>
<path d="M203.518 80.3256C203.518 80.3256 199.261 74.7335 198.364 78.4364C197.912 80.3255 203.511 87.2728 203.511 87.2728C203.511 87.2728 211.163 79.7438 208.521 74.7198C206.728 71.366 203.518 80.3256 203.518 80.3256Z" stroke="#070707" stroke-width="4" stroke-linecap="round" stroke-linejoin="round"/>
<path d="M201.465 70.9005C201.465 70.9005 196.304 66.7938 195.489 69.6617C195.099 71.0306 203.128 76.0134 203.128 76.0134C203.128 76.0134 207.577 69.3331 204.641 66.8211C202.683 65.1237 201.465 70.9005 201.465 70.9005Z" stroke="#070707" stroke-width="4" stroke-linecap="round" stroke-linejoin="round"/>
<path d="M200.096 68.5118C200.096 68.5118 196.543 55.2128 191.602 58.7377C187.851 61.3934 200.096 68.5118 200.096 68.5118Z" stroke="#070707" stroke-width="4" stroke-linecap="round" stroke-linejoin="round"/>
<path d="M153.737 245.643C152.432 245.304 151.309 244.473 150.602 243.325C149.896 242.177 149.66 240.8 149.946 239.482L179.966 112.036C181.821 104.473 190.075 99.9832 197.947 102.262L201.923 103.419C209.795 105.698 213.983 113.795 211.04 121.051L160.507 242.563C159.946 243.812 158.95 244.814 157.704 245.381C156.457 245.948 155.047 246.041 153.737 245.643Z" fill="#E57B07" stroke="#070707" stroke-width="4" stroke-linecap="round" stroke-linejoin="round"/>
<path d="M249.5 124.473C249.5 124.473 263.381 101.434 285.393 108.423" stroke="#070707" stroke-width="4" stroke-linecap="round" stroke-linejoin="round"/>
<path d="M257.659 114.548C257.659 114.548 266.557 113.98 264.613 118.374C263.394 121.112 252.292 119.34 252.292 119.34C252.292 119.34 252.662 107.156 257.542 107.252C261.444 107.334 257.659 114.548 257.659 114.548Z" stroke="#070707" stroke-width="4" stroke-linecap="round" stroke-linejoin="round"/>
<path d="M264.359 109.846C264.359 109.846 272.477 110.75 269.534 113.344C268.042 114.665 258.87 113.583 258.87 113.583C258.87 113.583 262.977 102.741 266.947 102.406C270.917 102.071 264.359 109.846 264.359 109.846Z" stroke="#070707" stroke-width="4" stroke-linecap="round" stroke-linejoin="round"/>
<path d="M274.9 106.992C274.9 106.992 281.231 109.155 279.007 111.249C277.946 112.269 269.356 108.21 269.356 108.21C269.356 108.21 273.23 101.215 277.001 102.345C279.527 103.07 274.9 106.992 274.9 106.992Z" stroke="#070707" stroke-width="4" stroke-linecap="round" stroke-linejoin="round"/>
<path d="M277.741 106.924C277.741 106.924 291.683 103.132 290.951 108.977C290.396 113.337 277.741 106.924 277.741 106.924Z" stroke="#070707" stroke-width="4" stroke-linecap="round" stroke-linejoin="round"/>
<path d="M246.892 135.787C246.892 135.787 249.295 109.353 226.974 103.282" stroke="#070707" stroke-width="4" stroke-linecap="round" stroke-linejoin="round"/>
<path d="M243.436 115.76C243.436 115.76 236.215 112.132 237.077 115.856C237.515 117.745 245.715 121.783 245.715 121.783C245.715 121.783 248.809 110.633 245.77 108.245C242.731 105.856 243.436 115.76 243.436 115.76Z" stroke="#070707" stroke-width="4" stroke-linecap="round" stroke-linejoin="round"/>
<path d="M236.475 107.745C236.475 107.745 229.965 106.123 230.513 109.025C230.78 110.435 240.28 111.708 240.28 111.708C240.28 111.708 241.286 103.871 237.501 102.769C235.003 102.043 236.475 107.745 236.475 107.745Z" stroke="#070707" stroke-width="4" stroke-linecap="round" stroke-linejoin="round"/>
<path d="M234.182 106.157C234.182 106.157 224.969 95.541 222.087 100.722C219.945 104.631 234.182 106.157 234.182 106.157Z" stroke="#070707" stroke-width="4" stroke-linecap="round" stroke-linejoin="round"/>
<path d="M245.612 123.132C245.612 123.132 259.137 98.053 241.67 83.5904" stroke="#070707" stroke-width="4" stroke-linecap="round" stroke-linejoin="round"/>
<path d="M250.301 100.9C250.301 100.9 246.043 95.3083 245.147 99.0181C244.688 100.9 250.294 107.854 250.294 107.854C250.294 107.854 257.939 100.325 255.297 95.2946C253.545 91.9408 250.301 100.9 250.301 100.9Z" stroke="#070707" stroke-width="4" stroke-linecap="round" stroke-linejoin="round"/>
<path d="M248.254 91.4343C248.254 91.4343 243.093 87.3275 242.286 90.1954C241.889 91.5643 249.917 96.554 249.917 96.554C249.917 96.554 254.366 89.8669 251.43 87.3549C249.493 85.6985 248.254 91.4343 248.254 91.4343Z" stroke="#070707" stroke-width="4" stroke-linecap="round" stroke-linejoin="round"/>
<path d="M246.892 89.0866C246.892 89.0866 243.34 75.7876 238.398 79.3125C234.668 81.9751 246.892 89.0866 246.892 89.0866Z" stroke="#070707" stroke-width="4" stroke-linecap="round" stroke-linejoin="round"/>
<path d="M200.548 266.217C199.242 265.88 198.118 265.05 197.412 263.901C196.706 262.752 196.473 261.374 196.762 260.057L226.79 132.632C228.645 125.069 236.899 120.578 244.77 122.865L248.754 124.021C256.625 126.301 260.807 134.398 257.864 141.646L207.33 263.137C206.771 264.39 205.772 265.395 204.523 265.963C203.273 266.53 201.859 266.621 200.548 266.217V266.217Z" fill="#E57B07" stroke="#070707" stroke-width="4" stroke-linecap="round" stroke-linejoin="round"/>
<path d="M82.9883 103.577L79.7774 105.294L176.604 286.33L179.815 284.612L82.9883 103.577Z" fill="#F7F3EF" stroke="#070707" stroke-width="4" stroke-linecap="round" stroke-linejoin="round"/>
<path d="M88.5267 100.617L85.3158 102.335L182.142 283.37L185.353 281.653L88.5267 100.617Z" fill="#F7F3EF" stroke="#070707" stroke-width="4" stroke-linecap="round" stroke-linejoin="round"/>
<path d="M99.6026 94.6885L96.3917 96.4059L193.218 277.442L196.429 275.724L99.6026 94.6885Z" fill="#F7F3EF" stroke="#070707" stroke-width="4" stroke-linecap="round" stroke-linejoin="round"/>
<path d="M110.679 88.7629L107.468 90.4803L204.295 271.516L207.506 269.799L110.679 88.7629Z" fill="#F7F3EF" stroke="#070707" stroke-width="4" stroke-linecap="round" stroke-linejoin="round"/>
<path d="M94.065 97.6511L90.8541 99.3685L187.681 280.404L190.892 278.687L94.065 97.6511Z" fill="#F7F3EF" stroke="#070707" stroke-width="4" stroke-linecap="round" stroke-linejoin="round"/>
<path d="M105.141 91.7223L101.93 93.4396L198.757 274.475L201.968 272.758L105.141 91.7223Z" fill="#F7F3EF" stroke="#070707" stroke-width="4" stroke-linecap="round" stroke-linejoin="round"/>
<path d="M116.227 85.8064L113.016 87.5237L209.843 268.56L213.054 266.842L116.227 85.8064Z" fill="#F7F3EF" stroke="#070707" stroke-width="4" stroke-linecap="round" stroke-linejoin="round"/>
<path d="M124.535 99.128L121.324 100.845L218.15 281.881L221.361 280.164L124.535 99.128Z" fill="#F7F3EF" stroke="#070707" stroke-width="4" stroke-linecap="round" stroke-linejoin="round"/>
<path d="M130.066 96.1687L126.855 97.886L223.682 278.922L226.893 277.205L130.066 96.1687Z" fill="#F7F3EF" stroke="#070707" stroke-width="4" stroke-linecap="round" stroke-linejoin="round"/>
<path d="M135.608 93.2085L132.397 94.9258L229.223 275.962L232.434 274.244L135.608 93.2085Z" fill="#F7F3EF" stroke="#070707" stroke-width="4" stroke-linecap="round" stroke-linejoin="round"/>
<path d="M141.152 90.2459L137.941 91.9633L234.768 272.999L237.979 271.282L141.152 90.2459Z" fill="#F7F3EF" stroke="#070707" stroke-width="4" stroke-linecap="round" stroke-linejoin="round"/>
<path d="M83.8064 134.117H295.441V290.611C295.441 298.472 292.318 306.01 286.76 311.568C281.202 317.126 273.664 320.248 265.804 320.248H113.443C105.583 320.248 98.0449 317.126 92.4869 311.568C86.9289 306.01 83.8064 298.472 83.8064 290.611V134.117Z" fill="#F7F3EF" stroke="#070707" stroke-width="4" stroke-linecap="round" stroke-linejoin="round"/>
<path d="M295.441 149.613H320.129L346.686 133.104C347.385 132.564 347.891 131.812 348.129 130.962C348.367 130.111 348.324 129.206 348.007 128.381V128.381C346.878 125.527 342.99 124.61 340.478 126.602L316.659 140.914H295.441V149.613Z" fill="#F7F3EF" stroke="#070707" stroke-width="4" stroke-linecap="round" stroke-linejoin="round"/>
<path d="M83.7927 149.613H59.0975L32.5405 133.084C31.8416 132.543 31.3356 131.792 31.0977 130.941C30.8597 130.09 30.9024 129.185 31.2195 128.361V128.361C32.3488 125.507 36.2434 124.589 38.7485 126.581L62.5197 140.893H83.7379L83.7927 149.613Z" fill="#F7F3EF" stroke="#070707" stroke-width="4" stroke-linecap="round" stroke-linejoin="round"/>
<path d="M295.441 87.8751L98.5427 10.285C113.402 0.558834 157.844 6.36988 206.304 25.4594C254.763 44.5489 291.211 70.6268 295.441 87.8751Z" fill="#F7F3EF" stroke="#070707" stroke-width="4" stroke-linecap="round" stroke-linejoin="round"/>
<path d="M229.404 14.2343L199.22 2.3384C196.297 1.18852 193.224 3.105 193.313 6.03448L193.758 20.586L220.951 31.3046L231.218 20.9625C233.265 18.8817 232.327 15.3842 229.404 14.2343Z" fill="#F7F3EF" stroke="#070707" stroke-width="4" stroke-linecap="round" stroke-linejoin="round"/>
<path d="M394.386 147.875H390.56C390.875 148.513 391.041 149.216 391.046 149.928V153.426C391.046 154.27 390.711 155.081 390.114 155.679C389.517 156.277 388.708 156.613 387.863 156.615H368.513C368.095 156.615 367.68 156.533 367.293 156.372C366.906 156.212 366.554 155.977 366.258 155.681C365.962 155.385 365.727 155.033 365.567 154.646C365.406 154.259 365.324 153.844 365.324 153.426V149.955C365.328 149.243 365.494 148.541 365.81 147.902H361.819V141.215C361.819 140.599 361.939 139.988 362.174 139.419C362.41 138.849 362.755 138.331 363.19 137.895C363.626 137.459 364.143 137.113 364.712 136.877C365.281 136.641 365.892 136.52 366.508 136.52H389.691C390.307 136.519 390.918 136.639 391.488 136.875C392.059 137.111 392.576 137.457 393.013 137.893C393.449 138.329 393.795 138.847 394.03 139.417C394.266 139.987 394.387 140.598 394.386 141.215V147.875Z" fill="#F7F3EF" stroke="#070707" stroke-width="4" stroke-linecap="round" stroke-linejoin="round"/>
<path d="M409.663 237.984L405.659 296.895C405.524 299.369 404.455 301.701 402.667 303.417C400.879 305.133 398.507 306.107 396.029 306.142H360.177C357.698 306.109 355.325 305.136 353.537 303.419C351.749 301.702 350.68 299.37 350.546 296.895L346.57 237.984H409.663Z" fill="#F7F3EF" stroke="#070707" stroke-width="4" stroke-linecap="round" stroke-linejoin="round"/>
<path d="M416.952 221.071L411.258 302.425C411.04 305.35 409.727 308.085 407.579 310.082C405.432 312.08 402.61 313.193 399.677 313.199H356.556C353.619 313.192 350.793 312.076 348.645 310.072C346.497 308.069 345.186 305.327 344.975 302.398L339.253 221.071C339.023 217.833 339.628 214.59 341.011 211.654C342.394 208.718 344.509 206.186 347.151 204.301C350.031 202.301 352.385 199.635 354.013 196.529C355.641 193.424 356.495 189.971 356.501 186.464L356.255 155.89C356.209 154.854 356.373 153.82 356.737 152.85C357.101 151.88 357.659 150.993 358.375 150.244C359.091 149.495 359.952 148.899 360.905 148.492C361.858 148.084 362.884 147.875 363.921 147.875H392.278C393.315 147.873 394.343 148.081 395.297 148.488C396.252 148.894 397.115 149.49 397.832 150.239C398.55 150.988 399.109 151.875 399.474 152.847C399.839 153.818 400.004 154.853 399.957 155.89L399.704 186.464C399.714 189.971 400.57 193.423 402.199 196.528C403.828 199.633 406.182 202.3 409.061 204.301C411.701 206.188 413.813 208.72 415.195 211.656C416.577 214.592 417.182 217.834 416.952 221.071V221.071Z" fill="#E57B07" stroke="#070707" stroke-width="4" stroke-linecap="round" stroke-linejoin="round"/>
<path d="M398.027 270.441C397.418 273.863 388.698 278.1 378.041 278.1C367.384 278.1 358.664 273.829 358.048 270.441L358.13 227.614C359.225 224.37 367.713 220.283 378.041 220.283C388.37 220.283 396.857 224.39 397.952 227.614L398.027 270.441Z" fill="#F7F3EF" stroke="#070707" stroke-width="4" stroke-linecap="round" stroke-linejoin="round"/>
<path d="M22.8828 204.863V206.327C22.8828 207.132 23.2021 207.904 23.7705 208.474C24.3389 209.044 25.1102 209.364 25.915 209.366V209.366V213.952C25.9168 214.788 26.25 215.589 26.8416 216.179C27.4331 216.769 28.2346 217.101 29.0703 217.101H35.1415C35.5555 217.102 35.9656 217.021 36.3484 216.863C36.7312 216.705 37.0791 216.473 37.3722 216.181C37.6653 215.888 37.8978 215.541 38.0565 215.159C38.2151 214.776 38.2968 214.366 38.2968 213.952V209.366C38.6956 209.366 39.0904 209.288 39.4587 209.135C39.8271 208.982 40.1616 208.758 40.4433 208.476C40.7249 208.194 40.9481 207.858 41.1001 207.49C41.2521 207.121 41.3299 206.726 41.329 206.327V204.863C41.329 204.058 41.0095 203.287 40.4409 202.719C39.8722 202.15 39.101 201.83 38.2968 201.83H25.915C25.1113 201.832 24.3412 202.152 23.7729 202.721C23.2047 203.289 22.8846 204.059 22.8828 204.863Z" fill="#F7F3EF" stroke="#070707" stroke-width="4" stroke-linecap="round" stroke-linejoin="round"/>
<path d="M2 283.137C2 290.919 6.70907 302.767 11.0143 309.735C11.5005 310.526 12.181 311.178 12.9909 311.631C13.8009 312.084 14.7133 312.322 15.6412 312.322H46.2091C47.1491 312.319 48.0724 312.073 48.8899 311.609C49.7075 311.145 50.3918 310.479 50.8771 309.674C55.1687 302.5 59.8777 289.824 59.8777 282.042C59.8777 266.436 52.7868 254.842 40.665 250.146V219.428L47.2495 209.353H21.2401V250.133C9.09098 254.842 2 267.538 2 283.137Z" fill="#F7F3EF" stroke="#070707" stroke-width="4" stroke-linecap="round" stroke-linejoin="round"/>
<path d="M21.2196 217.128H12.5543C11.1839 217.13 9.83399 217.461 8.61872 218.094C7.40344 218.728 6.35855 219.644 5.57239 220.767C4.78623 221.889 4.28193 223.185 4.10211 224.543C3.9223 225.902 4.07227 227.284 4.53933 228.572L13.8822 254.335" stroke="#070707" stroke-width="4" stroke-linecap="round" stroke-linejoin="round"/>
<path d="M6.57901 283.37C6.57901 289.92 10.5489 299.893 14.1696 305.759C14.5789 306.424 15.1517 306.973 15.8334 307.354C16.5152 307.735 17.2832 307.935 18.0642 307.935H43.793C44.5846 307.933 45.3624 307.727 46.0507 307.336C46.7391 306.945 47.3147 306.383 47.7218 305.704C51.3357 299.667 55.2987 288.989 55.2987 282.432C55.3418 278.478 54.7217 274.545 53.4644 270.796H8.65292C7.23994 274.836 6.53824 279.09 6.57901 283.37V283.37Z" fill="#F7F3EF" stroke="#070707" stroke-width="4" stroke-linecap="round" stroke-linejoin="round"/>
<path d="M346.885 235.218V309.297C346.885 309.767 346.792 310.232 346.612 310.666C346.432 311.1 346.168 311.494 345.836 311.826C345.503 312.158 345.108 312.421 344.674 312.6C344.24 312.779 343.775 312.871 343.305 312.87H315.085C314.615 312.871 314.15 312.779 313.716 312.6C313.282 312.421 312.888 312.158 312.556 311.826C312.224 311.494 311.961 311.099 311.782 310.666C311.603 310.232 311.511 309.767 311.512 309.297V235.218C311.508 232.73 312.372 230.318 313.955 228.398C315.538 226.478 317.74 225.169 320.184 224.698V207.025H338.212V224.698C340.655 225.171 342.857 226.479 344.44 228.399C346.022 230.319 346.887 232.73 346.885 235.218V235.218Z" fill="#F7F3EF" stroke="#070707" stroke-width="4" stroke-linecap="round" stroke-linejoin="round"/>
<path d="M341.689 245.868V304.492C341.689 306.641 340.163 308.38 338.267 308.38H320.109C318.226 308.38 316.686 306.641 316.686 304.492V245.868H341.689Z" fill="#EFAF00" stroke="black" stroke-width="4" stroke-linecap="round" stroke-linejoin="round"/>
<path d="M340.601 204.26H317.795C316.888 204.26 316.152 204.996 316.152 205.903V208.353C316.152 209.261 316.888 209.996 317.795 209.996H340.601C341.508 209.996 342.244 209.261 342.244 208.353V205.903C342.244 204.996 341.508 204.26 340.601 204.26Z" fill="#F7F3EF" stroke="#070707" stroke-width="4" stroke-linecap="round" stroke-linejoin="round"/>
</svg>
